<svg id="Layer_1" data-name="Layer 1" xmlns="http://www.w3.org/2000/svg" xmlns:xlink="http://www.w3.org/1999/xlink" viewBox="0 0 454 86"><defs><style>.cls-1{fill:none;}.cls-2{clip-path:url(#clip-path);}.cls-3,.cls-5{fill:#ffa400;}.cls-3{fill-rule:evenodd;}.cls-4{fill:#fff;}</style><clipPath id="clip-path"><rect class="cls-1" x="-0.33" y="0.67" width="454" height="86"/></clipPath></defs><title>footer-logo</title><g class="cls-2"><path class="cls-3" d="M8.67,45.67l10.38,0c2-20.39,15.64-34.86,34.62-30.42V10.93a31.07,31.07,0,0,0-8.38-1.78C35.22,8.38,25.66,12.8,19,20.11,12.9,26.85,9.59,36.72,9,45.67"/><path class="cls-3" d="M53.67,17.25a21.23,21.23,0,0,0-7.32.06c-13,2.27-22,15.2-22.15,28.36l10.65,0C35.27,34.7,42,23.41,53.67,22.8Z"/><path class="cls-3" d="M53.67,45.71V25.56c-9,1.08-13.14,11-13.72,20.1Z"/><path class="cls-4" d="M86.67,32.67v.48a15.54,15.54,0,0,0-1-5.77A13,13,0,0,0,83,23.15a11,11,0,0,0-3.8-2.6,11.61,11.61,0,0,0-4.43-.88A9.12,9.12,0,0,0,70,20.85a11.72,11.72,0,0,0-3.28,3V10.67h-7v35h7V42.48a12.66,12.66,0,0,0,3.16,2.64,9.14,9.14,0,0,0,4.78,1.13A11.4,11.4,0,0,0,79,45.4a10.46,10.46,0,0,0,3.68-2.54,12.92,12.92,0,0,0,2.57-4.14,15.18,15.18,0,0,0,1-5.63m-6.54,0a7.8,7.8,0,0,1-.48,2.82,6.63,6.63,0,0,1-1.31,2.15A5.82,5.82,0,0,1,76,39.45a5.62,5.62,0,0,1-6.53-1.39,6.9,6.9,0,0,1-1.29-2.18,7.79,7.79,0,0,1-.48-2.8V33a7.79,7.79,0,0,1,.48-2.8A6.91,6.91,0,0,1,69.44,28,5.71,5.71,0,0,1,76,26.63,5.77,5.77,0,0,1,77.88,28a6.58,6.58,0,0,1,1.31,2.17,7.84,7.84,0,0,1,.48,2.8Z"/><path class="cls-4" d="M97.67,11.67h-8v6h8Zm0,9h-7v25h7Z"/><path class="cls-4" d="M149.67,37.67V38a5.94,5.94,0,0,0-.72-3,7.21,7.21,0,0,0-1.82-2.11,11.39,11.39,0,0,0-2.49-1.46q-1.39-.6-2.73-1-1.06-.34-2-.67a14.8,14.8,0,0,1-1.65-.7,4.67,4.67,0,0,1-1.15-.77,1.25,1.25,0,0,1-.43-.94v.2a1.63,1.63,0,0,1,.72-1.36,3.56,3.56,0,0,1,2.15-.54,10.44,10.44,0,0,1,3.42.69,24.58,24.58,0,0,1,4,1.86l3-5.36A19.65,19.65,0,0,0,145,20.46a17.61,17.61,0,0,0-5.29-.84,13.16,13.16,0,0,0-3.91.56,9.12,9.12,0,0,0-3.17,1.69,8,8,0,0,0-2.94,6.44V28a6.61,6.61,0,0,0,.7,3.17,7.09,7.09,0,0,0,1.8,2.18,9.7,9.7,0,0,0,2.47,1.44,27.41,27.41,0,0,0,2.71.94l2,.62a17.27,17.27,0,0,1,1.7.6,3.66,3.66,0,0,1,1.18.74,1.38,1.38,0,0,1,.43,1v0a1.61,1.61,0,0,1-.74,1.38,4,4,0,0,1-2.3.52,11.19,11.19,0,0,1-3.87-.76,17.12,17.12,0,0,1-4.16-2.28L128.5,42.4a17.88,17.88,0,0,0,10.93,3.85,14.12,14.12,0,0,0,3.83-.5,9.32,9.32,0,0,0,3.11-1.5,6.74,6.74,0,0,0,2.07-2.54,8.49,8.49,0,0,0,.74-3.68"/><path class="cls-4" d="M166.67,44.67V38.94a7.48,7.48,0,0,1-3.63.92q-2.37,0-2.37-2.52V26.67h6v-6h-6v-7h-7v7h-3v6h3V38.55a10.49,10.49,0,0,0,.55,3.68,6,6,0,0,0,1.52,2.36,5.38,5.38,0,0,0,2.33,1.26,12,12,0,0,0,3,.36,11.45,11.45,0,0,0,3.18-.4,11.18,11.18,0,0,0,2.52-1.07"/><path class="cls-4" d="M177.67,11.67h-8v6h8Zm-1,9h-7v25h7Z"/><path class="cls-4" d="M220.67,45.67V29.08q0-4.61-2.31-7A8.49,8.49,0,0,0,212,19.71a10.38,10.38,0,0,0-4.71,1,11.69,11.69,0,0,0-3.75,3,7.12,7.12,0,0,0-2.86-3,8.71,8.71,0,0,0-4.4-1.06,9,9,0,0,0-2.52.33,8.59,8.59,0,0,0-2,.91A10,10,0,0,0,190,22.27a15.72,15.72,0,0,0-1.37,1.56V20.67h-7v25h7V31.48a5.45,5.45,0,0,1,1.22-3.86,4.36,4.36,0,0,1,3.36-1.31,4.12,4.12,0,0,1,3.28,1.31,5.67,5.67,0,0,1,1.14,3.86V45.67h7V31.48a5.45,5.45,0,0,1,1.22-3.86,4.36,4.36,0,0,1,3.36-1.31,4.13,4.13,0,0,1,3.28,1.31,5.68,5.68,0,0,1,1.14,3.86V45.67Z"/><path class="cls-4" d="M247.67,45.67v-25h-7V34.85a5.44,5.44,0,0,1-1.23,3.86A4.37,4.37,0,0,1,236.1,40a4.14,4.14,0,0,1-3.27-1.31,5.65,5.65,0,0,1-1.15-3.86V20.67h-8v16.5a10.07,10.07,0,0,0,2.24,6.94,8.06,8.06,0,0,0,6.35,2.52,7.92,7.92,0,0,0,4.44-1.24,10,10,0,0,0,1.63-1.32,15.15,15.15,0,0,0,1.35-1.56v3.17Z"/><rect class="cls-4" x="251.67" y="10.67" width="7" height="35"/><path class="cls-4" d="M285.67,45.67V31c-.36-3.46-1.26-6.15-3.07-8.08S277.91,20,274,20a23,23,0,0,0-5.52.57,28.32,28.32,0,0,0-4.37,1.47l1.8,5.51a24.94,24.94,0,0,1,3.35-1,17,17,0,0,1,3.68-.36A6.1,6.1,0,0,1,277,27.38c.92.79.68,3.47.68,3.47v.52a20.32,20.32,0,0,0-2.74-.74,17.12,17.12,0,0,0-3.3-.28,15.61,15.61,0,0,0-4,.48,9.16,9.16,0,0,0-3.14,1.45,6.74,6.74,0,0,0-2.05,2.44,7.72,7.72,0,0,0-.74,3.5v.1a7.92,7.92,0,0,0,.67,3.35,7.15,7.15,0,0,0,1.83,2.45,7.75,7.75,0,0,0,2.7,1.5,10.78,10.78,0,0,0,3.31.5,10,10,0,0,0,4.4-.88,9.83,9.83,0,0,0,3.1-2.35v2.76Zm-7-8.92a4.11,4.11,0,0,1-1.61,3.37,6.68,6.68,0,0,1-4.28,1.28,4.87,4.87,0,0,1-3-.84,2.77,2.77,0,0,1-1.14-2.38v-.1a3.09,3.09,0,0,1,1.39-2.72,6.7,6.7,0,0,1,3.81-.94,11.88,11.88,0,0,1,2.6.27,11.59,11.59,0,0,1,2.2.72Z"/><path class="cls-4" d="M312.67,45.67V29.17a10.08,10.08,0,0,0-2.24-6.94,8.06,8.06,0,0,0-6.35-2.52A7.9,7.9,0,0,0,299.64,21,9.72,9.72,0,0,0,298,22.27a15.13,15.13,0,0,0-1.34,1.56V20.67h-7v25h7V31.48a5.41,5.41,0,0,1,1.23-3.86,4.37,4.37,0,0,1,3.34-1.31,4.14,4.14,0,0,1,3.27,1.31,5.64,5.64,0,0,1,1.16,3.86V45.67Z"/><path class="cls-4" d="M330.67,44.67V38.94a7.48,7.48,0,0,1-3.63.92q-2.37,0-2.37-2.52V26.67h6v-6h-6v-7h-7v7h-3v6h3V38.55a10.54,10.54,0,0,0,.55,3.68,6.08,6.08,0,0,0,1.52,2.36,5.4,5.4,0,0,0,2.33,1.26,12,12,0,0,0,3,.36,11.44,11.44,0,0,0,3.18-.4,11.19,11.19,0,0,0,2.52-1.07"/><rect class="cls-4" x="332.67" y="37.67" width="8" height="8"/><path class="cls-4" d="M366.91,41.53l-4.15-4.2a13.17,13.17,0,0,1-2.64,1.94A6.39,6.39,0,0,1,357,40a6.16,6.16,0,0,1-2.61-.54,6.08,6.08,0,0,1-2-1.47,6.41,6.41,0,0,1-1.28-2.19,8,8,0,0,1-.44-2.71V33a7.71,7.71,0,0,1,.44-2.64,6.65,6.65,0,0,1,1.26-2.17,6,6,0,0,1,1.91-1.47,5.51,5.51,0,0,1,2.45-.54,6.28,6.28,0,0,1,3.2.75,11.67,11.67,0,0,1,2.5,2l4.34-4.67a13.24,13.24,0,0,0-4.11-3.08,13.59,13.59,0,0,0-5.88-1.12,13.36,13.36,0,0,0-5.3,1,12.59,12.59,0,0,0-4.13,2.8A12.9,12.9,0,0,0,344.65,28a13.12,13.12,0,0,0-1,5v.09a13,13,0,0,0,1,5,12.59,12.59,0,0,0,6.83,6.88,13.16,13.16,0,0,0,5.2,1,12.56,12.56,0,0,0,6.07-1.28,15.93,15.93,0,0,0,4.15-3.29"/><path class="cls-4" d="M437.67,45.67V29.08q0-4.61-2.31-7A8.49,8.49,0,0,0,429,19.71a10.4,10.4,0,0,0-4.71,1,11.68,11.68,0,0,0-3.75,3,7.15,7.15,0,0,0-2.86-3,8.7,8.7,0,0,0-4.4-1.06,8.92,8.92,0,0,0-2.52.33,8.62,8.62,0,0,0-2,.91A9.94,9.94,0,0,0,407,22.27a15.47,15.47,0,0,0-1.37,1.56V20.67h-7v25h7V31.48a5.45,5.45,0,0,1,1.22-3.86,4.36,4.36,0,0,1,3.35-1.31,4.13,4.13,0,0,1,3.28,1.31,5.68,5.68,0,0,1,1.14,3.86V45.67h7V31.48a5.45,5.45,0,0,1,1.22-3.86,4.37,4.37,0,0,1,3.36-1.31,4.13,4.13,0,0,1,3.28,1.31,5.68,5.68,0,0,1,1.14,3.86V45.67Z"/><path class="cls-5" d="M128.67,32.67V33a13,13,0,0,0-1.06-5.24,13.2,13.2,0,0,0-2.92-4.25,13.54,13.54,0,0,0-4.42-2.85,14.6,14.6,0,0,0-5.55-1,14.45,14.45,0,0,0-5.6,1.06,14,14,0,0,0-4.44,2.9,13.33,13.33,0,0,0-2.94,4.27,13,13,0,0,0-1.06,5.24v.1a13,13,0,0,0,1.06,5.24,13.21,13.21,0,0,0,2.92,4.25,13.56,13.56,0,0,0,4.42,2.85,15.36,15.36,0,0,0,11.15,0,14,14,0,0,0,4.44-2.9,13.32,13.32,0,0,0,2.95-4.27,13,13,0,0,0,1.06-5.24m-8,.09a7.73,7.73,0,0,1-.44,2.62A6.42,6.42,0,0,1,119,38a6,6,0,0,1-2,1.46,6.51,6.51,0,0,1-2.71.54,6.19,6.19,0,0,1-2.67-.56,6.64,6.64,0,0,1-3.41-3.69,7.35,7.35,0,0,1-.46-2.62V33a7.74,7.74,0,0,1,.44-2.62,6.44,6.44,0,0,1,1.28-2.16,6,6,0,0,1,2-1.46,6.53,6.53,0,0,1,2.72-.53,6.23,6.23,0,0,1,2.65.56,6.61,6.61,0,0,1,3.44,3.69,7.32,7.32,0,0,1,.46,2.62Z"/><path class="cls-5" d="M395.67,32.67V33a12.92,12.92,0,0,0-1.06-5.24,13.16,13.16,0,0,0-2.92-4.25,13.56,13.56,0,0,0-4.42-2.85,15.32,15.32,0,0,0-11.15,0,14,14,0,0,0-4.44,2.9,13.33,13.33,0,0,0-2.94,4.27,13,13,0,0,0-1.06,5.24v.1a13,13,0,0,0,1.06,5.24,13.28,13.28,0,0,0,2.92,4.25,13.57,13.57,0,0,0,4.41,2.85,14.66,14.66,0,0,0,5.56,1,14.49,14.49,0,0,0,5.6-1.06,14,14,0,0,0,4.44-2.9,13.28,13.28,0,0,0,2.94-4.27,12.94,12.94,0,0,0,1.06-5.24m-7,.09a7.64,7.64,0,0,1-.44,2.62A6.37,6.37,0,0,1,387,38a6,6,0,0,1-2,1.46,6.51,6.51,0,0,1-2.72.54,6.19,6.19,0,0,1-2.67-.56,6.66,6.66,0,0,1-3.41-3.69,7.31,7.31,0,0,1-.47-2.62V33a7.74,7.74,0,0,1,.44-2.62,6.47,6.47,0,0,1,1.28-2.16,6,6,0,0,1,2-1.46,6.54,6.54,0,0,1,2.72-.53,6.22,6.22,0,0,1,2.64.56,6.62,6.62,0,0,1,3.44,3.69,7.41,7.41,0,0,1,.46,2.62Z"/><polygon class="cls-5" points="95.67 58.67 98.44 58.67 101.26 71.48 101.89 74.67 102.09 74.67 102.82 71.48 106.03 58.67 108.81 58.67 111.9 71.48 112.57 74.67 112.78 74.67 113.45 71.48 116.41 58.67 119.15 58.67 114.32 77.67 110.95 77.67 108.01 65.81 107.48 62.67 107.31 62.67 106.75 65.81 103.69 77.67 100.29 77.67 95.67 58.67"/><polygon class="cls-5" points="121.67 58.67 131.67 58.67 131.67 60.67 123.67 60.67 123.67 66.67 131.67 66.67 131.67 68.67 123.67 68.67 123.67 75.67 132.67 75.67 132.67 77.67 121.67 77.67 121.67 58.67"/><path class="cls-5" d="M138.67,77.49l5.61-18.82h3.79l5.61,18.82v.18h-2.31l-1.58-5h-6.44l-1.56,5h-3.12Zm10.18-7.82L147,63.61l-.85-2.94h-.23L145,63.61l-1.87,6.06Z"/><path class="cls-5" d="M162.17,70.76q-.82.08-1.77.08l-1,0a3.25,3.25,0,0,1-.76-.08v6.94h-3V58.78c.86-.14,1.61-.24,2.35-.31s1.49-.1,2.22-.1q4.11,0,6,1.5a5.74,5.74,0,0,1,1.88,4.77q0,4.34-3.57,5.63l4,7.4h-2.85Zm-1.29-2.06a5.69,5.69,0,0,0,3.67-.94,3.9,3.9,0,0,0,1.11-3.12,3.92,3.92,0,0,0-1.09-3.12,5.53,5.53,0,0,0-3.61-.94c-.31,0-.67,0-1.08.05l-1.21.13v7.76c.31.05.66.09,1.05.13s.78.05,1.16.05"/><polygon class="cls-5" points="171.67 58.67 181.67 58.67 181.67 60.67 173.67 60.67 173.67 66.67 181.67 66.67 181.67 68.67 173.67 68.67 173.67 75.67 182.67 75.67 182.67 77.67 171.67 77.67 171.67 58.67"/><path class="cls-5" d="M196.09,77.88q-1.3,0-2.76-.1t-2.66-.28V58.8l1.57-.16c.47,0,.91-.09,1.33-.11l1.18-.07,1.11,0q3.53,0,5.15,1.25a4.66,4.66,0,0,1,1.63,3.94,4.78,4.78,0,0,1-.77,2.82,3.57,3.57,0,0,1-2.2,1.42V68a4.09,4.09,0,0,1,2.62,1.51,4.94,4.94,0,0,1,.93,3.12q0,5.26-7.13,5.26m-.26-2.37q4.27,0,4.27-3.44a3.08,3.08,0,0,0-1-2.6,5.66,5.66,0,0,0-3.42-.8h-3V75.3a11.17,11.17,0,0,0,1.29.14c.6,0,1.23.06,1.88.06m-.26-8.84a8.06,8.06,0,0,0,1.84-.18,2.88,2.88,0,0,0,1.22-.58,2.24,2.24,0,0,0,.67-1,5.09,5.09,0,0,0,.21-1.56,3.07,3.07,0,0,0-.93-2.48,4.59,4.59,0,0,0-3-.78c-.55,0-1.05,0-1.52,0s-.93.07-1.41.14v6.43Z"/><rect class="cls-5" x="205.67" y="58.67" width="3" height="19"/><path class="cls-5" d="M219.15,77.93q-7.53,0-7.53-9.74t7.53-9.79a6.74,6.74,0,0,1,5.65,2.43q1.9,2.43,1.9,7.36t-1.9,7.31a6.74,6.74,0,0,1-5.65,2.43m0-2.24a5.2,5.2,0,0,0,2.18-.42,3.55,3.55,0,0,0,1.52-1.34,6.63,6.63,0,0,0,.87-2.34,17.8,17.8,0,0,0,.28-3.41q0-4-1.16-5.77a4.7,4.7,0,0,0-7.38,0q-1.16,1.79-1.16,5.77a17.73,17.73,0,0,0,.28,3.41,6.69,6.69,0,0,0,.88,2.34,3.56,3.56,0,0,0,1.5,1.34,5.11,5.11,0,0,0,2.17.42"/><path class="cls-5" d="M234.2,78a19.79,19.79,0,0,1-5.53-.87l.1-2.24c.36.12.75.23,1.18.34s.87.21,1.33.28.9.14,1.35.18.86.06,1.23.06A4.43,4.43,0,0,0,236.7,75a2.71,2.71,0,0,0,1-2.25,2.8,2.8,0,0,0-.26-1.25,2.68,2.68,0,0,0-.76-.93,6.16,6.16,0,0,0-1.22-.73,15.35,15.35,0,0,0-1.64-.64,13.68,13.68,0,0,1-2.11-.85,5.75,5.75,0,0,1-1.52-1.09,4.06,4.06,0,0,1-.93-1.51,6.27,6.27,0,0,1-.31-2.08,5.4,5.4,0,0,1,.42-2.18,4.62,4.62,0,0,1,1.22-1.67,5.51,5.51,0,0,1,1.93-1.07,8.12,8.12,0,0,1,2.54-.37,16.09,16.09,0,0,1,2.11.14,20.64,20.64,0,0,1,2.39.47l-.08,2.18c-.77-.19-1.53-.34-2.28-.45a13.54,13.54,0,0,0-1.94-.17,3.92,3.92,0,0,0-2.66.84,2.82,2.82,0,0,0-1,2.25,2.65,2.65,0,0,0,.23,1.15,2.61,2.61,0,0,0,.71.89,5.36,5.36,0,0,0,1.19.73c.48.22,1.05.45,1.72.69a13.56,13.56,0,0,1,2.05.86,6.14,6.14,0,0,1,1.53,1.12,4.2,4.2,0,0,1,1,1.5,5.84,5.84,0,0,1,.32,2,5,5,0,0,1-1.62,4A6.7,6.7,0,0,1,234.2,78"/><polygon class="cls-5" points="246.67 60.67 241.67 60.67 241.67 58.67 254.67 58.67 254.67 60.67 249.67 60.67 249.67 77.67 246.67 77.67 246.67 60.67"/><rect class="cls-5" x="256.67" y="58.67" width="3" height="19"/><polygon class="cls-5" points="263.67 58.67 266.78 58.67 271.19 70.49 272.16 73.67 272.34 73.67 273.32 70.49 277.73 58.67 280.67 58.67 280.67 77.67 278.67 77.67 278.67 61.67 278.54 61.67 277.32 65.43 273.32 76.67 271.02 76.67 267.02 65.43 265.79 61.67 265.67 61.67 265.67 77.67 263.67 77.67 263.67 58.67"/><path class="cls-5" d="M291.69,77.93a9.94,9.94,0,0,1-3.24-.46,5,5,0,0,1-2.17-1.41,5.84,5.84,0,0,1-1.22-2.41,13.67,13.67,0,0,1-.39-3.47V58.67h3V70.1a6.7,6.7,0,0,0,1.08,4.26,5.15,5.15,0,0,0,6.85,0,6.77,6.77,0,0,0,1.07-4.28V58.67h3v11.5a13.82,13.82,0,0,1-.38,3.47,5.76,5.76,0,0,1-1.24,2.41,5.08,5.08,0,0,1-2.18,1.41,9.94,9.94,0,0,1-3.24.46"/><polygon class="cls-5" points="302.67 58.67 305.67 58.67 305.67 75.67 312.67 75.67 312.67 77.67 302.67 77.67 302.67 58.67"/><path class="cls-5" d="M312.67,77.49l5.61-18.82h3.79l5.61,18.82v.18h-2.31l-1.58-5h-6.44l-1.56,5h-3.12Zm10.8-7.82-1.89-6.06-.85-2.94h-.23l-.85,2.94-1.87,6.06Z"/><polygon class="cls-5" points="330.67 58.67 332.85 58.67 341.25 71.47 342.49 73.67 342.67 73.67 342.67 58.67 344.67 58.67 344.67 77.67 342.34 77.67 334.2 65.26 332.96 63.05 332.67 63.07 332.67 77.67 330.67 77.67 330.67 58.67"/><polygon class="cls-5" points="351.67 60.67 346.67 60.67 346.67 58.67 359.67 58.67 359.67 60.67 354.67 60.67 354.67 77.67 351.67 77.67 351.67 60.67"/><path class="cls-5" d="M363.37,77.7a1.55,1.55,0,0,1-1.14-.4,1.51,1.51,0,0,1-.4-1.12,1.46,1.46,0,0,1,.4-1.09,1.54,1.54,0,0,1,1.14-.4,1.51,1.51,0,0,1,1.14.41,1.48,1.48,0,0,1,.4,1.08,1.52,1.52,0,0,1-.4,1.12,1.55,1.55,0,0,1-1.14.4m-.7-5.48-1-13.31v-.24h3v.24l-1,13.31v.45h-1Z"/><polygon class="cls-5" points="373.67 70.67 371.67 70.67 371.67 69.67 377.67 69.67 377.67 70.67 374.67 70.67 374.67 77.67 373.67 77.67 373.67 70.67"/><polygon class="cls-5" points="378.67 68.67 379.98 68.67 382.04 74.18 382.5 75.67 382.58 75.67 383.04 74.18 385.09 68.67 386.67 68.67 386.67 77.67 385.67 77.67 385.67 70.67 385.61 70.67 385.05 72.17 383.2 76.67 382.14 76.67 380.29 72.17 379.73 70.67 379.67 70.67 379.67 77.67 378.67 77.67 378.67 68.67"/></g></svg>