<svg xmlns="http://www.w3.org/2000/svg" xmlns:xlink="http://www.w3.org/1999/xlink" viewBox="0 0 466 297.01"><defs><style>.cls-1,.cls-21{fill:none;}.cls-2{isolation:isolate;}.cls-3{clip-path:url(#clip-path);}.cls-4{fill:#ead8b2;}.cls-5{fill:#bc7a43;}.cls-45,.cls-6{opacity:0.4;}.cls-34,.cls-6{mix-blend-mode:multiply;}.cls-7{clip-path:url(#clip-path-2);}.cls-8{fill:#ca8f49;}.cls-9{clip-path:url(#clip-path-3);}.cls-10,.cls-34{opacity:0.5;}.cls-11{clip-path:url(#clip-path-4);}.cls-12{fill:#fff;}.cls-13{font-size:28.95px;fill:#472503;font-family:MyriadPro-Bold, Myriad Pro;font-weight:700;}.cls-14{letter-spacing:0em;}.cls-15{letter-spacing:-0.01em;}.cls-16{letter-spacing:-0.01em;}.cls-17{letter-spacing:0.02em;}.cls-18{letter-spacing:-0.01em;}.cls-19{letter-spacing:0em;}.cls-20{letter-spacing:-0.01em;}.cls-21{stroke:#472503;stroke-linecap:round;stroke-linejoin:round;stroke-width:5px;}.cls-22{letter-spacing:0em;}.cls-23{letter-spacing:0em;}.cls-24{fill:#3d742e;}.cls-25{fill:#346227;}.cls-26{clip-path:url(#clip-path-7);}.cls-27{clip-path:url(#clip-path-8);}.cls-28{clip-path:url(#clip-path-9);}.cls-29{clip-path:url(#clip-path-10);}.cls-30{clip-path:url(#clip-path-11);}.cls-31{clip-path:url(#clip-path-12);}.cls-32{fill:#85b033;}.cls-33{fill:#528b45;}.cls-35{clip-path:url(#clip-path-13);}.cls-36{clip-path:url(#clip-path-14);}.cls-37{fill:#97c12e;}.cls-38{clip-path:url(#clip-path-15);}.cls-39{clip-path:url(#clip-path-16);}.cls-40{clip-path:url(#clip-path-17);}.cls-41{clip-path:url(#clip-path-18);}.cls-42{fill:#5b882f;}.cls-43{clip-path:url(#clip-path-19);}.cls-44{clip-path:url(#clip-path-20);}.cls-45,.cls-58{mix-blend-mode:screen;}.cls-46{clip-path:url(#clip-path-21);}.cls-47{clip-path:url(#clip-path-22);}.cls-48{clip-path:url(#clip-path-23);}.cls-49{clip-path:url(#clip-path-24);}.cls-50{clip-path:url(#clip-path-25);}.cls-51{clip-path:url(#clip-path-26);}.cls-52{clip-path:url(#clip-path-27);}.cls-53{clip-path:url(#clip-path-28);}.cls-54{clip-path:url(#clip-path-29);}.cls-55{clip-path:url(#clip-path-30);}.cls-56{clip-path:url(#clip-path-31);}.cls-57{clip-path:url(#clip-path-32);}.cls-59{clip-path:url(#clip-path-33);}.cls-60{clip-path:url(#clip-path-34);}.cls-61{clip-path:url(#clip-path-35);}.cls-62{fill:#bfd13f;}.cls-63{fill:#83a32e;}.cls-64{clip-path:url(#clip-path-36);}.cls-65{clip-path:url(#clip-path-37);}.cls-66{clip-path:url(#clip-path-38);}.cls-67{clip-path:url(#clip-path-39);}.cls-68{clip-path:url(#clip-path-40);}.cls-69{clip-path:url(#clip-path-41);}.cls-70{clip-path:url(#clip-path-42);}.cls-71{clip-path:url(#clip-path-43);}.cls-72{clip-path:url(#clip-path-44);}.cls-73{clip-path:url(#clip-path-45);}.cls-74{clip-path:url(#clip-path-46);}.cls-75{clip-path:url(#clip-path-47);}.cls-76{clip-path:url(#clip-path-48);}.cls-77{clip-path:url(#clip-path-49);}.cls-78{clip-path:url(#clip-path-50);}.cls-79{clip-path:url(#clip-path-51);}.cls-80{clip-path:url(#clip-path-52);}.cls-81{clip-path:url(#clip-path-53);}.cls-82{clip-path:url(#clip-path-54);}.cls-83{clip-path:url(#clip-path-55);}.cls-84{clip-path:url(#clip-path-56);}.cls-85{clip-path:url(#clip-path-57);}.cls-86{clip-path:url(#clip-path-58);}.cls-87{clip-path:url(#clip-path-59);}.cls-88{clip-path:url(#clip-path-60);}.cls-89{clip-path:url(#clip-path-61);}.cls-90{clip-path:url(#clip-path-62);}.cls-91{clip-path:url(#clip-path-63);}.cls-92{clip-path:url(#clip-path-64);}.cls-93{clip-path:url(#clip-path-65);}.cls-94{clip-path:url(#clip-path-66);}.cls-95{clip-path:url(#clip-path-67);}.cls-96{clip-path:url(#clip-path-68);}.cls-97{clip-path:url(#clip-path-69);}.cls-98{clip-path:url(#clip-path-70);}.cls-99{clip-path:url(#clip-path-71);}.cls-100{clip-path:url(#clip-path-72);}.cls-101{clip-path:url(#clip-path-73);}.cls-102{clip-path:url(#clip-path-74);}.cls-103{clip-path:url(#clip-path-75);}.cls-104{clip-path:url(#clip-path-76);}.cls-105{clip-path:url(#clip-path-77);}.cls-106{fill:#55361f;}</style><clipPath id="clip-path"><rect class="cls-1" x="-475.19" y="-2199.49" width="1000" height="2665"/></clipPath><clipPath id="clip-path-2"><rect class="cls-1" x="121.97" y="161.82" width="87.8" height="22.6"/></clipPath><clipPath id="clip-path-3"><rect class="cls-1" x="221.42" y="108.07" width="89.86" height="180.63"/></clipPath><clipPath id="clip-path-4"><rect class="cls-1" x="36.67" y="105.96" width="374.39" height="191.06"/></clipPath><clipPath id="clip-path-7"><rect class="cls-1" x="225.14" y="20.08" width="11.19" height="6.41"/></clipPath><clipPath id="clip-path-8"><rect class="cls-1" x="201.16" y="39.32" width="11.15" height="4.49"/></clipPath><clipPath id="clip-path-9"><rect class="cls-1" x="201.1" y="62.3" width="15.03" height="9.88"/></clipPath><clipPath id="clip-path-10"><rect class="cls-1" x="218.41" y="51.06" width="8.33" height="55.62"/></clipPath><clipPath id="clip-path-11"><rect class="cls-1" x="216.67" y="34.7" width="11.39" height="26.53"/></clipPath><clipPath id="clip-path-12"><rect class="cls-1" x="206.87" y="31.55" width="11.76" height="11.53"/></clipPath><clipPath id="clip-path-13"><rect class="cls-1" x="168.85" y="55.55" width="35.74" height="14.02"/></clipPath><clipPath id="clip-path-14"><rect class="cls-1" x="170" y="64.04" width="34.19" height="5.21"/></clipPath><clipPath id="clip-path-15"><rect class="cls-1" x="170" y="64.13" width="34.19" height="5.12"/></clipPath><clipPath id="clip-path-16"><rect class="cls-1" x="225.33" y="23.51" width="37.55" height="13.17"/></clipPath><clipPath id="clip-path-17"><rect class="cls-1" x="226.09" y="32.24" width="35.48" height="4.45"/></clipPath><clipPath id="clip-path-18"><rect class="cls-1" x="226.09" y="32.24" width="35.48" height="4.44"/></clipPath><clipPath id="clip-path-19"><rect class="cls-1" x="226.08" y="42.48" width="29.2" height="14.81"/></clipPath><clipPath id="clip-path-20"><rect class="cls-1" x="226.08" y="46.88" width="29.2" height="10.41"/></clipPath><clipPath id="clip-path-21"><rect class="cls-1" x="234.32" y="48.31" width="10.26" height="2.31"/></clipPath><clipPath id="clip-path-22"><rect class="cls-1" x="232.35" y="45.34" width="2.44" height="1"/></clipPath><clipPath id="clip-path-23"><rect class="cls-1" x="186.11" y="78.11" width="30.14" height="16.39"/></clipPath><clipPath id="clip-path-24"><rect class="cls-1" x="187.19" y="79.08" width="29.06" height="15.42"/></clipPath><clipPath id="clip-path-25"><rect class="cls-1" x="197.15" y="83.09" width="9.06" height="3.99"/></clipPath><clipPath id="clip-path-26"><rect class="cls-1" x="211.54" y="73.28" width="25.23" height="17.84"/></clipPath><clipPath id="clip-path-27"><rect class="cls-1" x="211.54" y="73.53" width="25.23" height="17.59"/></clipPath><clipPath id="clip-path-28"><rect class="cls-1" x="217.46" y="76.47" width="7.56" height="6.2"/></clipPath><clipPath id="clip-path-29"><rect class="cls-1" x="226.76" y="75.06" width="2.36" height="1.38"/></clipPath><clipPath id="clip-path-30"><rect class="cls-1" x="178.57" y="37.23" width="31.78" height="15.69"/></clipPath><clipPath id="clip-path-31"><rect class="cls-1" x="179.48" y="38.61" width="30.86" height="14.18"/></clipPath><clipPath id="clip-path-32"><rect class="cls-1" x="190.76" y="42.19" width="9.25" height="3.77"/></clipPath><clipPath id="clip-path-33"><rect class="cls-1" x="210.43" y="36.33" width="11.06" height="69.89"/></clipPath><clipPath id="clip-path-34"><rect class="cls-1" x="219.65" y="27.88" width="8.14" height="3.36"/></clipPath><clipPath id="clip-path-35"><rect class="cls-1" x="195.73" y="32.06" width="12.28" height="5.39"/></clipPath><clipPath id="clip-path-36"><rect class="cls-1" x="185.78" y="18.06" width="5.94" height="6.14"/></clipPath><clipPath id="clip-path-37"><rect class="cls-1" x="202.44" y="11.94" width="6.1" height="8.21"/></clipPath><clipPath id="clip-path-38"><rect class="cls-1" x="200.03" y="13.68" width="6.51" height="8.69"/></clipPath><clipPath id="clip-path-39"><rect class="cls-1" x="213.78" y="5.64" width="7.63" height="8.9"/></clipPath><clipPath id="clip-path-40"><rect class="cls-1" x="210.46" y="11.49" width="6.6" height="7.36"/></clipPath><clipPath id="clip-path-41"><rect class="cls-1" x="207.66" y="12.07" width="5.32" height="8.95"/></clipPath><clipPath id="clip-path-42"><rect class="cls-1" x="217.26" y="7.14" width="9.87" height="10.59"/></clipPath><clipPath id="clip-path-43"><rect class="cls-1" x="212.33" y="12.68" width="10.13" height="7.96"/></clipPath><clipPath id="clip-path-44"><rect class="cls-1" x="192.74" y="12.85" width="5.49" height="9"/></clipPath><clipPath id="clip-path-45"><rect class="cls-1" x="197.25" y="17.8" width="7.64" height="8.59"/></clipPath><clipPath id="clip-path-46"><rect class="cls-1" x="190.56" y="17.02" width="4.92" height="9.36"/></clipPath><clipPath id="clip-path-47"><rect class="cls-1" x="211.75" y="17.68" width="7.53" height="7.62"/></clipPath><clipPath id="clip-path-48"><rect class="cls-1" x="193.35" y="18.43" width="10.79" height="11.07"/></clipPath><clipPath id="clip-path-49"><rect class="cls-1" x="202.29" y="18.7" width="8.95" height="11.16"/></clipPath><clipPath id="clip-path-50"><rect class="cls-1" x="217.44" y="14.8" width="7.22" height="5.45"/></clipPath><clipPath id="clip-path-51"><rect class="cls-1" x="205.56" y="15.52" width="8.16" height="10.88"/></clipPath><clipPath id="clip-path-52"><rect class="cls-1" x="226.61" y="10.27" width="4.76" height="13.39"/></clipPath><clipPath id="clip-path-53"><rect class="cls-1" x="221.86" y="13.36" width="7.23" height="13.46"/></clipPath><clipPath id="clip-path-54"><rect class="cls-1" x="226.12" y="22.51" width="1.22" height="2.88"/></clipPath><clipPath id="clip-path-55"><rect class="cls-1" x="185.96" y="25.38" width="16.74" height="7.61"/></clipPath><clipPath id="clip-path-56"><rect class="cls-1" x="196.66" y="24.56" width="14.08" height="9.1"/></clipPath><clipPath id="clip-path-57"><rect class="cls-1" x="216.59" y="16.68" width="9.41" height="12.92"/></clipPath><clipPath id="clip-path-58"><rect class="cls-1" x="208.65" y="20.83" width="11.88" height="12.36"/></clipPath><clipPath id="clip-path-59"><rect class="cls-1" x="211.73" y="30.06" width="2.85" height="3"/></clipPath><clipPath id="clip-path-60"><rect class="cls-1" x="216.61" y="29.9" width="0.62" height="2.3"/></clipPath><clipPath id="clip-path-61"><rect class="cls-1" x="211.26" y="31.72" width="1.66" height="1.12"/></clipPath><clipPath id="clip-path-62"><rect class="cls-1" x="221.03" y="25.41" width="2.08" height="3.33"/></clipPath><clipPath id="clip-path-63"><rect class="cls-1" x="221.69" y="27.66" width="0.58" height="1.39"/></clipPath><clipPath id="clip-path-64"><rect class="cls-1" x="204.06" y="30.9" width="3.2" height="2.78"/></clipPath><clipPath id="clip-path-65"><rect class="cls-1" x="203.42" y="32.09" width="1.95" height="1.36"/></clipPath><clipPath id="clip-path-66"><rect class="cls-1" x="210.38" y="22.08" width="4.2" height="7.42"/></clipPath><clipPath id="clip-path-67"><rect class="cls-1" x="218.5" y="18.4" width="2.33" height="8.06"/></clipPath><clipPath id="clip-path-68"><rect class="cls-1" x="199.3" y="25.3" width="3.1" height="6.29"/></clipPath><clipPath id="clip-path-69"><rect class="cls-1" x="223.48" y="14.34" width="2.74" height="8.07"/></clipPath><clipPath id="clip-path-70"><rect class="cls-1" x="227.73" y="12.34" width="2.05" height="6.97"/></clipPath><clipPath id="clip-path-71"><rect class="cls-1" x="193.06" y="25.95" width="4.36" height="5.03"/></clipPath><clipPath id="clip-path-72"><rect class="cls-1" x="206.5" y="16.2" width="3.13" height="6.51"/></clipPath><clipPath id="clip-path-73"><rect class="cls-1" x="203.22" y="19.09" width="2.31" height="6.55"/></clipPath><clipPath id="clip-path-74"><rect class="cls-1" x="212.56" y="16.56" width="1.71" height="3.59"/></clipPath><clipPath id="clip-path-75"><rect class="cls-1" x="194.31" y="18.95" width="2.12" height="4.95"/></clipPath><clipPath id="clip-path-76"><rect class="cls-1" x="197.66" y="14.81" width="1.86" height="6.61"/></clipPath><clipPath id="clip-path-77"><rect class="cls-1" x="201.81" y="11.92" width="0.83" height="2.65"/></clipPath></defs><title>plant</title><g class="cls-2"><g id="Layer_1" data-name="Layer 1"><g class="cls-3"><path class="cls-4" d="M123.29,196.65a22.3,22.3,0,0,1-5.75,15.53c-6.72,8-6.69,11.56-6.69,11.56s14.6-12.1,15.58-29.7Z"/><path class="cls-5" d="M110.86,224.53a.73.73,0,0,1-.33-.07.8.8,0,0,1-.44-.71c0-.39.16-4.06,6.87-12.09a21.69,21.69,0,0,0,5.56-14.94.84.84,0,0,1,.28-.69l3.14-2.61a.75.75,0,0,1,.83-.08.79.79,0,0,1,.41.75c-1,17.76-15.25,29.78-15.86,30.28a.76.76,0,0,1-.48.17M124.08,197a23.22,23.22,0,0,1-6,15.71,38.36,38.36,0,0,0-5.67,8.45c3.82-3.86,11.71-13.19,13.08-25.34Z"/><path class="cls-4" d="M353,240.42s-15.6,11.61-14.38,32.22c-4.62-10.27,1.17-26.71,11.9-35.7Z"/><path class="cls-5" d="M338.65,273.26a1,1,0,0,1-.89-.43c-4.64-10.3.89-26.91,12.07-36.28a1.19,1.19,0,0,1,.83-.23,1,1,0,0,1,.73.35l2.47,3.49a.47.47,0,0,1-.15.68c-.16.12-15.24,11.61-14.15,31.58a.45.45,0,0,1,.06.21c0,.34-.41.62-.92.63Zm11.71-35.15c-8,7.22-12.81,18.29-12.39,27.4,1.9-14.51,11.82-23.42,14-25.18Z"/><path class="cls-4" d="M348.77,232.82s20.09,3.58,35.24,10.85c-13.16-10.65-37.65-14.59-37.65-14.59Z"/><path class="cls-5" d="M384.27,244.25a1.2,1.2,0,0,1-.82-.05c-14.87-7.12-34.78-10.73-35-10.76a.79.79,0,0,1-.53-.31l-2.42-3.74a.51.51,0,0,1,.16-.68,1.27,1.27,0,0,1,1-.24c.25,0,24.91,4.11,38.09,14.76a.51.51,0,0,1-.08.85,1.24,1.24,0,0,1-.39.18m-34.81-12a180.17,180.17,0,0,1,27.5,7.63c-10.56-5.85-24-8.87-28.92-9.85Z"/><path class="cls-4" d="M290.13,192.13s13.48,6.94,23.37,17.17,27.51,16.05,32,22.84,12.8,17.71,24.68,20.17c-14.1-10.13-15.44-10.54-24-23-8.69-11.86-14-9.11-23.71-17.09s-15.42-13.13-22.65-18.15Z"/><path class="cls-5" d="M370.49,252.9a1.24,1.24,0,0,1-.59,0c-13.37-2.77-22.26-16.09-25.19-20.47-2.14-3.21-7.36-6.23-13.41-9.72-6.3-3.63-13.45-7.76-18.57-13-9.71-10-23.05-17-23.19-17a.49.49,0,0,1-.2-.79,1.22,1.22,0,0,1,1.12-.34l9.75,2a1,1,0,0,1,.34.14c5.36,3.73,10,7.6,15.84,12.49,2.08,1.74,4.33,3.62,6.84,5.69a41,41,0,0,0,9.86,5.94c4.44,2.06,8.64,4,14,11.25,7.81,11.35,9.52,12.58,20.69,20.57l3.15,2.25a.48.48,0,0,1,.06.78,1.07,1.07,0,0,1-.49.27M294.4,193.68c4.74,2.81,13.17,8.29,19.88,15.23,5,5.16,12,9.22,18.26,12.81s11.54,6.67,13.83,10.1c2.5,3.75,9.49,14.21,19.73,18.48-11.07-7.91-12.85-9.23-20.7-20.63-5.11-7-9-8.76-13.41-10.82a42.71,42.71,0,0,1-10.19-6.15c-2.52-2.07-4.78-4-6.85-5.69-5.77-4.83-10.35-8.65-15.6-12.32Z"/><path class="cls-4" d="M318.82,184.21s4.45-5.28,10.62-11.54c6.83-6.93,24.51-17,29.71-17.95-11.9-1.24-19.91,5.6-31.06,15.37s-15.57,15.19-15.57,15.19Z"/><path class="cls-5" d="M319.06,185l-.18,0-6.3,1.07a.78.78,0,0,1-.83-.4.9.9,0,0,1,.13-1c.18-.22,4.59-5.59,15.68-15.3,6.64-5.81,12.9-11.3,19.59-13.94a25.2,25.2,0,0,1,12-1.67.76.76,0,0,1,.84.53,1,1,0,0,1-.58,1.13l0,0-.17,0a14.84,14.84,0,0,0-2.68.84c-7.32,2.89-21,11.22-26.52,16.83-6.06,6.15-10.52,11.43-10.56,11.49a1,1,0,0,1-.39.28m-4.35-1,3.72-.63c1-1.17,5.1-5.92,10.43-11.32s17.72-13.12,25.48-16.56a23.45,23.45,0,0,0-6.71,1.59c-6.38,2.52-12.52,7.91-19,13.61A179.59,179.59,0,0,0,314.71,184"/><path class="cls-4" d="M348.68,159.14s19.84,12.25,41.4,2.62c-13.64,8.2-27.5,7.16-44.59-.8a25.36,25.36,0,0,1,3.19-1.83"/><path class="cls-5" d="M384,165.68c-11.43,4.51-23.44,3.3-39-3.92a.77.77,0,0,1-.44-.71,1,1,0,0,1,.46-.8,25.14,25.14,0,0,1,3.35-1.9.82.82,0,0,1,.73.05c.19.12,19.69,12,40.63,2.57a.8.8,0,0,1,1.07.38.93.93,0,0,1-.4,1.14,43,43,0,0,1-6.42,3.19m-36.73-4.86c11,4.93,20.15,6.67,28.59,5.35a51.5,51.5,0,0,1-27.33-6.05c-.26.13-.67.35-1.26.7"/><path class="cls-4" d="M330.74,191.49s25.68,23.38,54.2,22.84c-20.51,3.24-44.68-4.1-59-22.46Z"/><path class="cls-5" d="M330.31,192.58c2.28,2,19.33,16.42,40.3,21.25-16.43-1.29-32.28-9-42.54-21.07Zm55.46,21.06a.76.76,0,0,0-.69-.36c-27.85.53-53.39-22.4-53.64-22.63a.78.78,0,0,0-.61-.2l-4.78.37a1.21,1.21,0,0,0-.93.69,1.11,1.11,0,0,0,.06,1.12c13.57,17.41,37,26.34,59.75,22.75a1.25,1.25,0,0,0,1-1.13,1,1,0,0,0-.14-.6"/><path class="cls-4" d="M278.49,235s19.12,4.25,34.51,17.52c-8.33-10-19.31-17.11-38.92-20.8,4,2.29,4.42,3.28,4.42,3.28"/><path class="cls-5" d="M313.32,253a1.43,1.43,0,0,1-1.11-.2c-15.06-13-33.9-17.28-34.09-17.32a.74.74,0,0,1-.53-.34s-.5-1-4.2-3.06c-.28-.16-.32-.4-.07-.59a1.49,1.49,0,0,1,1.09-.19c18.25,3.43,30.05,9.72,39.45,21.05.19.23,0,.5-.43.62l-.1,0m-34.07-18.32a94,94,0,0,1,27.12,12c-7.54-6.76-16.76-11.09-29.24-13.82a9.54,9.54,0,0,1,2.12,1.8"/><path class="cls-4" d="M166.87,215.06s-5.21,4.4-12.32,9.89-19.05,17.55-23.62,34.8c4-17.43,4.88-20.87,14.59-29.83s24.08-21.58,24.08-21.58Z"/><path class="cls-5" d="M130.94,260.54a.72.72,0,0,1-.2,0,.8.8,0,0,1-.55-1c4-17.44,4.89-21.06,14.82-30.24,9.6-8.87,24-21.47,24.1-21.59a.73.73,0,0,1,.94,0,.81.81,0,0,1,.26.95l-2.73,6.73a.85.85,0,0,1-.22.3c-.05,0-5.3,4.47-12.34,9.91-4.2,3.25-18.3,15.31-23.34,34.37a.77.77,0,0,1-.73.58m36.71-49.44c-4.53,4-14.42,12.76-21.62,19.41-6.79,6.27-9.13,9.68-11.36,17.35a72.46,72.46,0,0,1,19.43-23.55c6.36-4.91,11.24-9,12.14-9.74Z"/><path class="cls-4" d="M143.61,231.39s-20.89,8-34,28c1.14-8.9,10.85-17.67,18.15-21.54a103.47,103.47,0,0,1,15.84-6.47"/><path class="cls-5" d="M109.63,260.18a.65.65,0,0,1-.28-.06.78.78,0,0,1-.48-.84c1.25-9.68,11.78-18.54,18.56-22.14a104,104,0,0,1,16-6.52.75.75,0,0,1,.94.51.8.8,0,0,1-.46,1c-.21.08-20.82,8.13-33.62,27.7a.77.77,0,0,1-.63.35M132,236.64c-1.31.59-2.64,1.23-3.92,1.92-6.46,3.43-13.63,10-16.52,16.67A78.84,78.84,0,0,1,132,236.64"/><path class="cls-4" d="M124.3,239.87s-18.85,1.61-31.17,10.23c5.51-9.28,23.29-12.88,31.17-10.23"/><path class="cls-5" d="M93.14,250.9a.74.74,0,0,1-.54-.23.82.82,0,0,1-.12-1c4.39-7.42,16.08-11.38,25.34-11.46a21.14,21.14,0,0,1,6.71.88.82.82,0,0,1,.53.85.78.78,0,0,1-.71.7c-.18,0-18.79,1.7-30.8,10.1a.75.75,0,0,1-.42.14m24.7-11.08c-6.94.06-15.66,2.51-20.92,7,7.6-4.08,16.33-6.09,21.84-7h-.92"/><path class="cls-4" d="M255.79,178.55s21-10.35,45-6.47c-7.27-5.28-20.66-4-28.77-1.1a112.36,112.36,0,0,0-16.19,7.56"/><path class="cls-5" d="M301.31,172.64a.7.7,0,0,0,.16-.25.77.77,0,0,0-.26-.95c-7.91-5.74-22-3.86-29.5-1.2a112.67,112.67,0,0,0-16.33,7.63.8.8,0,0,0,.74,1.41c.21-.1,21-10.19,44.47-6.4a.82.82,0,0,0,.71-.24M268,173.4c1.38-.58,2.81-1.15,4.23-1.65,7.17-2.54,17.12-3.46,24.07-1A81.77,81.77,0,0,0,268,173.4"/><path class="cls-4" d="M276,169.75s14.87-13.2,30.06-16.6c-10.72-2.23-26.24,8.79-30.06,16.6"/><path class="cls-5" d="M306.59,153.7a.81.81,0,0,0,.23-.57.79.79,0,0,0-.62-.77c-8.56-1.79-19.92,4.35-26.72,11.33a23.3,23.3,0,0,0-4.24,5.71.79.79,0,0,0,1.25.94c.15-.13,14.89-13.1,29.7-16.42a.8.8,0,0,0,.4-.22m-26,11.1c5.09-5.23,13.2-10.16,20.3-11-8.48,3-16.28,8.19-21,11.72.21-.24.44-.47.67-.7"/><path class="cls-4" d="M198,179.93s-7.42,13.82-.3,35,19.61,34.88,15,56.19c-.13-15.33-5.05-26.86-10.88-37.45s-6.46-15-6.46-15-6.51,14.76-8.5,27.92c-1-10.94,4.32-24.13,4.32-24.13s-21.48,26.78-25.85,45.59c-2.8-10,10-32.31,24.92-48.08,4.48-5-2.7-32.82,7.79-40.11"/><path class="cls-5" d="M212.68,271.94h-.09a.79.79,0,0,1-.68-.79c-.13-15.59-5.26-27-10.78-37.06a77.39,77.39,0,0,1-6-13c-1.83,4.49-6.06,15.62-7.59,25.67a.76.76,0,0,1-1.52-.05c-.65-7.13,1.28-15.07,2.79-19.93-6,8-19.5,27.22-22.81,41.5a.77.77,0,0,1-.73.61.82.82,0,0,1-.75-.58c-3-10.66,10.71-33.66,25.11-48.86,1.55-1.74,1.5-7.42,1.44-13.42-.09-9.87-.21-22.15,6.47-26.79a.76.76,0,0,1,.95.08.82.82,0,0,1,.15,1c-.07.13-7.16,13.8-.25,34.39a170.93,170.93,0,0,0,7.21,17.37c6,12.91,11.09,24.06,7.77,39.25a.77.77,0,0,1-.74.61m-16.9-88.44c-3.29,5.4-3.2,14.75-3.13,22.54.07,6.87.12,12.3-1.86,14.53-12.47,13.16-24.28,32.2-25.07,43.27,6-18.25,24-40.8,24.84-41.82a.74.74,0,0,1,1-.17.8.8,0,0,1,.3,1,73.49,73.49,0,0,0-3.92,15,149.36,149.36,0,0,1,6.71-19.4.76.76,0,0,1,.8-.46.79.79,0,0,1,.65.67s.73,4.43,6.37,14.68c4.62,8.4,9,17.77,10.45,29.69.27-10.88-3.92-20-8.64-30.23A171.34,171.34,0,0,1,197,215.23c-5-14.89-3-26.12-1.22-31.72"/><path class="cls-4" d="M233.08,226.71s-11.33,29.34-4.21,53.07c-8.16-17.76-5.09-41.88.58-59.44,3.31,4.67,3.62,6.38,3.62,6.38"/><path class="cls-5" d="M228.88,280.56a.93.93,0,0,1-.87-.5c-10.26-22.31-2.17-51.52.55-59.95a.9.9,0,0,1,.76-.58,1,1,0,0,1,.92.38c3.31,4.67,3.71,6.48,3.75,6.67a.69.69,0,0,1,0,.36c-.11.3-11.08,29.22-4.26,52.39a.68.68,0,0,1,.15.42.88.88,0,0,1-.94.8Zm.9-58.2c-2.4,8-6.88,26.13-4.07,43.49-.86-18.76,5.61-37,6.42-39.18a20.29,20.29,0,0,0-2.35-4.31"/><path class="cls-4" d="M166.87,178.38s-1.84-.5-8.27,9.08S140.76,210,131.41,210c13.45-9.29,19.24-15.75,23-23.75S162,176.17,162,176.17Z"/><path class="cls-5" d="M131.41,210.83a.77.77,0,0,1-.74-.56.81.81,0,0,1,.31-.89c12.64-8.74,18.8-15.1,22.74-23.45,3.84-8.14,7.76-10.37,7.92-10.46a.75.75,0,0,1,.67,0l4.75,2.16a.8.8,0,0,1-.15,1.57h0a.56.56,0,0,1-.2,0c.08,0-1.82.38-7.45,8.77-2.56,3.81-15.91,22.82-27.82,22.92m30.66-33.77c-.94.68-4,3.21-7,9.58-3.76,8-9.43,14.15-20.45,22.08C142.68,206.29,152,196,158,187c2.89-4.31,5.32-7.25,7.06-8.59Z"/><path class="cls-4" d="M151.5,196.88s-4,15.63-11.5,22.1c8.15-4.23,13.22-16,14.48-26.27a23.55,23.55,0,0,1-3,4.18"/><path class="cls-5" d="M140,219.77a.76.76,0,0,1-.64-.36.82.82,0,0,1,.15-1c7.19-6.24,11.21-21.54,11.25-21.69a.87.87,0,0,1,.2-.36,22.87,22.87,0,0,0,2.85-4,.77.77,0,0,1,.91-.35.81.81,0,0,1,.51.86c-1.24,10.17-6.32,22.44-14.89,26.89a.7.7,0,0,1-.34.09m12.19-22.49a68.73,68.73,0,0,1-6.67,16.06c3.81-4.62,6.38-11.08,7.62-17.22-.43.56-.77,1-1,1.16"/><path class="cls-4" d="M133.95,174.62s-4.36,19-19.23,26.68S97,217.16,97,217.16s8.52-8.52,15.28-11.86,18.93-8.14,24.62-31Z"/><path class="cls-5" d="M97,218a.77.77,0,0,1-.42-.12.82.82,0,0,1-.3-.94c.13-.35,3.15-8.63,18.12-16.31,14.37-7.39,18.77-26,18.82-26.15a.77.77,0,0,1,.68-.61l2.94-.26a.73.73,0,0,1,.65.28.81.81,0,0,1,.16.72c-5.48,22-17,27.57-23.93,30.93l-1.1.54c-6.57,3.25-15,11.63-15.08,11.72A.74.74,0,0,1,97,218m37.56-42.6c-.86,3.29-5.73,19.59-19.49,26.65a47,47,0,0,0-13.77,10.14,56.73,56.73,0,0,1,10.64-7.55l1.12-.54c6.54-3.17,17.41-8.45,22.81-28.8Z"/><path class="cls-4" d="M132.59,174.39S114,166.81,100,173.73c8.1-6.17,25.06-5.61,35.74-.53Z"/><path class="cls-5" d="M132.6,175.18a.74.74,0,0,1-.29,0,55.5,55.5,0,0,0-18.86-3.51,29.93,29.93,0,0,0-13.1,2.83.76.76,0,0,1-1-.31.8.8,0,0,1,.2-1c3.84-2.93,9.85-4.58,16.93-4.64a46.35,46.35,0,0,1,19.58,4,.8.8,0,0,1,.44.75.77.77,0,0,1-.5.72l-3.16,1.19a.7.7,0,0,1-.26,0m-17-5.12a57.05,57.05,0,0,1,17,3.48l1.06-.4a46,46,0,0,0-18-3.08"/><path class="cls-4" d="M228.54,202.31s4.81,6.27,18,14.49,28.83,13.47,36.76,32.31c-4.47-16.83-13.78-21.56-25.72-28.32S229.41,204.35,227,196a40.42,40.42,0,0,0,1.57,6.28"/><path class="cls-5" d="M283.34,249.9a.92.92,0,0,1-.87-.52C276.18,234.45,264.88,228.14,254,222c-2.63-1.46-5.35-3-7.93-4.59-13.21-8.22-18.06-14.44-18.26-14.7s-.59-1.29-1.7-6.58a.81.81,0,0,1,.71-.92,1,1,0,0,1,1.1.58c2.52,8.57,21.26,19.19,30.26,24.3l1.25.71c11.43,6.45,20.47,11.55,24.86,28.1a.8.8,0,0,1-.65.94,1.06,1.06,0,0,1-.25,0M229.4,202s4.9,6.17,17.72,14.14c2.55,1.59,5.25,3.09,7.85,4.55,7.89,4.4,16,8.91,22.32,16.61-4.71-7.13-11.26-10.83-18.93-15.16l-1.26-.71c-11.4-6.45-22.35-13.22-27.8-19.68l.09.25"/><path class="cls-4" d="M241.14,211.66s19.2-.72,30.68,3.63c-7.59-4.57-17.33-7.45-33.29-6.58,1.73,1.47,2,2.77,2.62,2.95"/><path class="cls-5" d="M271.82,216.09a1.12,1.12,0,0,1-.39-.07c-9-3.39-22.72-3.65-28.22-3.6-1.28,0-2,0-2,0a1,1,0,0,1-.33,0,2.39,2.39,0,0,1-1.32-1.21,8.7,8.7,0,0,0-1.66-1.92.72.72,0,0,1-.22-.84.91.91,0,0,1,.81-.51c1.66-.09,3.25-.15,4.78-.16,11.81-.1,21,2.06,28.95,6.79a.79.79,0,0,1,.59.73c0,.44-.52.78-.94.8h0m-28.62-5.26a118.74,118.74,0,0,1,20.52,1.51c-6.53-2.35-13.91-3.25-23.3-2.92.3.38.53.72.71,1s.21.33.31.45l1.76,0"/><path class="cls-4" d="M290.56,189.88s26.27.23,39.2,5.54,38.4,7.2,45.68.34c-14.59,2.2-27.88,1.82-37.29-2.44-25.53-11.57-51.53-10.21-66.59-8.82Z"/><path class="cls-5" d="M374.7,196.16h0c-8.58,6.87-33.8,4.35-46-.64C316.07,190.33,290,190,289.79,190a.72.72,0,0,1-.71-.74,1.06,1.06,0,0,1,.65-1l-19-5.38.22-.05c12.16-1.12,41.66-3,66.94,8.88,8.57,4,21.37,4.72,36.89,2.39a.7.7,0,0,1,.79.5,1,1,0,0,1-.3,1c-.18.16-.37.33-.58.5m-80.4-7.8c8,.3,25.3,1.42,35.19,5.47,11.71,4.8,31.94,6.46,41.4,2.6-14.05,1.69-25.68.66-33.81-3-25.63-11.62-51.17-10.07-66.12-8.77Z"/><path class="cls-4" d="M339.24,192.44s31.53-8.91,50.7.86c-19-10.53-44.32-8.34-55.84-2.37Z"/><path class="cls-5" d="M390.18,194.1a.82.82,0,0,1-.68,0c-18.67-9.52-49.79-.9-50.1-.82a.82.82,0,0,1-.46,0l-5.14-1.51a.77.77,0,0,1-.55-.74,1,1,0,0,1,.52-.86c.91-.47,1.91-.92,3-1.34,13.62-5.37,36.42-5.82,53.66,3.71a.83.83,0,0,1,.27,1.15,1,1,0,0,1-.49.42m-50.86-2.57c2.22-.61,17.28-4.52,32.47-3.56-13.08-2.37-26.62-.92-35.28,2.74Z"/><path class="cls-4" d="M263,225.36s.86,15.95,7.9,29.34c-9.2-11.18-11.19-30.56-11.19-30.56Z"/><path class="cls-5" d="M270.91,255.49a1,1,0,0,1-.76-.34c-9.24-11.23-11.28-30.14-11.36-30.95a.75.75,0,0,1,.38-.71,1.09,1.09,0,0,1,.91-.08l3.28,1.22a.81.81,0,0,1,.55.69c0,.15.93,15.79,7.72,28.85a.76.76,0,0,1,.23.52.87.87,0,0,1-.92.8h0m-10.1-30.09a82.18,82.18,0,0,0,4.37,17.17,89.87,89.87,0,0,1-3.07-16.68Z"/><path class="cls-4" d="M270.63,181.67c-21.36-4.28-43.15-22.31-43.39-50.14-.15-17.49.48.28-.26-23.46-4.14,1.21-3.07,1.7-6.72.12.39,10.35.27,3.08-.1,12.37-1.41,35.68-8.41,42.52-36.79,51.21-17.7,4.92-23.84.73-33.52-.09s-22.08,3.58-26.89,12.63c0,0,8.36-12.45,26.88-9.51s33.32,10,53.88-6c-9.89,16.92-27.68,27-35.08,41.19s-12.28,30-10.27,45.09c1.4-19.94,7.47-43.7,20.22-55.5s32-28.45,38.8-44.66c-3.16,33.35,7,53.2,16.33,75.46s17,41.08,16.49,58.27c.72-25.78-1.85-32.28-9.21-49.4s-16.33-40.75-15-62.41c1.14-14.09,2.94-23.38,5.18-17.56s7.69,18.83,38.48,26.12S308.14,204,311.36,215C310,196.45,292,186,270.63,181.67"/><path class="cls-5" d="M249.69,289.5h0a.77.77,0,0,1-.7-.82c.49-17.36-7.73-37.07-16.43-57.92q-1.29-3.07-2.58-6.1c-8.2-19.28-16-37.56-14.14-65.73-7.18,13.72-22.31,27.58-33.6,37.93l-3.69,3.39c-16,14.79-19.32,45.8-20,54.95a.77.77,0,0,1-.7.74h0a.75.75,0,0,1-.72-.68c-1.82-13.65,1.66-29,10.35-45.61,3.72-7.1,9.93-13.13,16.51-19.52,5.78-5.61,11.73-11.39,16.43-18.3-7.75,5.3-15.39,7.82-23.79,7.9-6.16.05-12.09-1.15-18.36-2.43-2.93-.59-6-1.21-9.06-1.7a35.08,35.08,0,0,0-5.7-.44c-13.91.12-20.43,9.54-20.5,9.64a.68.68,0,0,1-1,.19.83.83,0,0,1-.23-1.06c4.73-8.91,16.23-13,24.91-13.12.9,0,1.79,0,2.65.1a66.75,66.75,0,0,1,7.25,1.13,53.28,53.28,0,0,0,11.32,1.31A56.64,56.64,0,0,0,182.66,171c27.22-8.33,34.8-13.86,36.25-50.47.36-9.1.49-1.81.1-12.31a.84.84,0,0,1,.3-.68.68.68,0,0,1,.69-.09c3,1.29,1.42,1.26,6.26-.15a.71.71,0,0,1,.62.13.83.83,0,0,1,.29.62c.43,13.94,1,4.73.57,15.35-.26,7.22-.38,1.07-.32,8.12.25,28.63,23.08,45.41,42.79,49.36,25.87,5.2,40.15,18.61,41.32,34a.77.77,0,0,1-.58.84.71.71,0,0,1-.83-.54c-3-10.23-10.25-21.69-41.1-29-31.63-7.5-36.79-20.88-39-26.59-.44-1.14-.72-1.29-.73-1.29s-1.68,1.46-3.07,18.61c-1.34,21.11,7.26,44.22,14.9,62,7.08,16.49,10,23.31,9.28,49.75a.76.76,0,0,1-.72.78M216.86,154.19a.74.74,0,0,1,.2,0,.79.79,0,0,1,.53.85c-2.85,30.06,5.18,48.93,13.68,68.93.86,2,1.72,4.05,2.58,6.11,6.27,15,12.29,29.48,15,43-.72-14-3.59-20.68-9.07-33.43-7.71-18-16.39-41.31-15-62.8,1.62-20,3.6-20.05,4.56-20.06s1.64,1.28,2,2.25c2.11,5.48,7.07,18.34,38,25.65,23.76,5.64,33.87,13.78,38.75,22-3.68-8.85-13.44-19.29-38.13-24.24-20.31-4.07-43.73-21.37-44-50.91-.06-7.09.3-.67.56-7.91.37-10.34-.4-1.12-.79-14.54-4.25,1.13-2.3,1.17-5.25.23.35,10.12.21,2.48-.13,11.28-1.48,37.36-9.24,43.34-37.33,51.94A58.08,58.08,0,0,1,168,174.93a53.79,53.79,0,0,1-11.58-1.34,67.55,67.55,0,0,0-7.11-1.11c-.82-.07-1.67-.1-2.53-.09A32.82,32.82,0,0,0,134.35,175a29.7,29.7,0,0,1,9.16-1.48,36.09,36.09,0,0,1,5.91.46c3.14.5,6.17,1.12,9.12,1.71,6.21,1.26,12.07,2.45,18.09,2.39,9.23-.08,17.54-3.23,26.15-9.93a.67.67,0,0,1,.92.08.85.85,0,0,1,.11,1c-5.06,8.66-12.07,15.46-18.84,22-6.49,6.3-12.62,12.25-16.22,19.12-6.5,12.43-10,24.1-10.56,34.84,1.93-13.49,6.87-34.65,19.41-46.25,1.18-1.09,2.42-2.22,3.7-3.4,12.18-11.16,28.85-26.45,34.92-41a.73.73,0,0,1,.65-.46"/><g class="cls-6"><g class="cls-7"><path class="cls-8" d="M203.14,169.19a66.34,66.34,0,0,1-5,7.27c.39-.45.8-.86,1.19-1.32,3.64-4.3,7.07-8.79,10.46-13.32-.18.16-.37.35-.55.5-.55.48-1.1.94-1.67,1.38-1.14.88-2.3,1.71-3.5,2.48a62.11,62.11,0,0,1-9.33,4.95c-7.57,3.25-17.73,5.79-26.06,3.19-8.06.2-13-2-19.61-2.56-9.71-.89-22.19,3.5-27.07,12.65,0,0,8.46-12.58,27-9.49s33.4,10.34,54.13-5.74"/></g></g><g class="cls-6"><g class="cls-9"><path class="cls-8" d="M270.42,181.67c-21.43-4.28-43.29-22.31-43.53-50.14-.15-17.49.48.28-.25-23.46-1.62.48-.47.77-2.14.94-.11,15.92.34,3.11.24,19.14,0,6.12.45,6.91.49,13A109.22,109.22,0,0,1,224,157.71c-.79,5.4-1.8,10.78-2.27,16.23a74.64,74.64,0,0,0,.43,16.53c.89,6.62,2.43,13.26,3,20,2.59,6.74,5.49,13.26,8.3,20,9.31,22.26,17,41.08,16.55,58.27.72-25.78-1.86-32.28-9.24-49.39s-16.39-40.75-15-62.41c1.14-14.09,3-23.38,5.2-17.56s7.72,18.83,38.61,26.11S308,204,311.28,215c-1.42-18.54-19.44-29-40.86-33.32"/></g></g><g class="cls-10"><g class="cls-11"><rect class="cls-12" x="36.66" y="105.96" width="374.4" height="191.06"/></g></g></g><text class="cls-13" transform="translate(340.95 247.18)"><tspan class="cls-14">O</tspan><tspan class="cls-15" x="20.87" y="0">r</tspan><tspan x="31.67" y="0">ganic</tspan></text><text class="cls-13" transform="translate(335.28 276.7)"><tspan class="cls-16">f</tspan><tspan x="9.61" y="0">e</tspan><tspan class="cls-17" x="24.89" y="0">r</tspan><tspan x="36.5" y="0">tili</tspan><tspan class="cls-18" x="70.95" y="0">z</tspan><tspan class="cls-19" x="84.32" y="0">ers</tspan></text><text class="cls-13" transform="translate(16.13 287.24) scale(1.07 1)">Biostimula<tspan class="cls-20" x="138.25" y="0">n</tspan><tspan x="155.07" y="0">ts</tspan></text><g class="cls-3"><polygon class="cls-21" points="139.91 248.3 221.62 146.78 309.63 248.21 139.91 248.3"/></g><text class="cls-13" transform="translate(121.04 136.02)"><tspan class="cls-22">M</tspan><tspan x="24.63" y="0">ic</tspan><tspan class="cls-15" x="45.62" y="0">r</tspan><tspan class="cls-23" x="56.42" y="0">o</tspan><tspan x="73.18" y="0">o</tspan><tspan class="cls-18" x="89.88" y="0">r</tspan><tspan x="100.68" y="0">ganisms</tspan></text><g class="cls-3"><path class="cls-24" d="M228.52,23.66s3.56-4.54,7.81-3.39c-2.86,1.18-4.11,1.71-5.25,3.34s-3.13,3.46-5.94,2.7c1.82-2.67,3.38-2.65,3.38-2.65"/><path class="cls-25" d="M226.48,26.69a5.2,5.2,0,0,1-1.42-.19.29.29,0,0,1-.17-.12.16.16,0,0,1,0-.17c1.57-2.3,3-2.68,3.45-2.74.45-.54,3.1-3.57,6.53-3.59a5.76,5.76,0,0,1,1.53.2.25.25,0,0,1,.19.17.17.17,0,0,1-.12.19c-2.86,1.19-4,1.68-5.15,3.27a6.15,6.15,0,0,1-4.84,3m-.95-.49a4.48,4.48,0,0,0,.91.09c2,0,3.52-1.51,4.4-2.78,1.09-1.57,2.3-2.15,4.78-3.18a5,5,0,0,0-.7,0c-3.41,0-6.14,3.45-6.16,3.49a.39.39,0,0,1-.22.09s-1.37,0-3,2.34"/><g class="cls-6"><g class="cls-26"><path class="cls-24" d="M233.33,20.31a3.45,3.45,0,0,0-.47.3c-.67.58-1,1.32-1.65,1.93a2.06,2.06,0,0,1-1.95.71s-.07,0-.06-.05a4,4,0,0,1,.2-.48,10.42,10.42,0,0,0-.88.94s-1.57,0-3.38,2.65c2.8.77,4.8-1.07,5.94-2.7s2.39-2.16,5.25-3.34a5.57,5.57,0,0,0-3,0"/></g></g><path class="cls-24" d="M220.42,106.42l-3.26-29.8c-.33-3-8.56-10.43-16.3-12.25a18.39,18.39,0,0,1,.58-2.06s10.94,3.93,14.29,8.31l-2.52-23.07c-.44-4-6-7.71-11.5-7.24l-.55-.62s7.36-2,10.86,3.4c-.53-3.77-3-8.2-5.14-9.31,2.22-1.9,11.76-2.22,11.76-2.22s-1.82,2.13-1.26,8.85c2.24-3.34,5.8-4.42,8.18-5.7a24.34,24.34,0,0,1,2.51,1S217,39.53,217.84,47.55l1.27,11.67a10.72,10.72,0,0,1,7.41-8.15l.2,1.06s-7.82,5.63-7.17,11.61l3.15,28.85,1.54,14.09"/><path class="cls-25" d="M220.06,105.63l-3.17-29c-.33-3-8.57-10.3-16.1-12.07-.14,0-.23-.14-.2-.24a18.85,18.85,0,0,1,.59-2.08.21.21,0,0,1,.14-.12.36.36,0,0,1,.22,0c.43.15,10,3.62,13.83,7.71l-2.43-22.29c-.41-3.73-5.32-7.11-10.31-7.08-.29,0-.58,0-.87,0a.32.32,0,0,1-.27-.1l-.55-.63a.16.16,0,0,1,0-.17.22.22,0,0,1,.15-.12c.12,0,6.74-1.75,10.51,2.59-.77-3.4-3-7.17-4.83-8.15a.22.22,0,0,1-.12-.14.16.16,0,0,1,.06-.15c2.26-1.93,11.54-2.27,11.94-2.28a.31.31,0,0,1,.26.1.16.16,0,0,1,0,.21s-1.63,2-1.28,8a16,16,0,0,1,6.19-4.34c.57-.27,1.11-.52,1.6-.79a.36.36,0,0,1,.28,0,24.26,24.26,0,0,1,2.55,1,.2.2,0,0,1,.13.18.18.18,0,0,1-.14.16c-.11,0-10.93,3.84-10.08,11.63l1.12,10.21a11.19,11.19,0,0,1,7.17-6.88.34.34,0,0,1,.25,0,.22.22,0,0,1,.15.16l.21,1.06a.16.16,0,0,1-.07.16c-.08.06-7.73,5.64-7.1,11.46l4.57,41.81m.12,1.2a.25.25,0,0,1-.28.14.26.26,0,0,1-.25-.2l-4.69-42.95c-.63-5.72,6.24-11,7.16-11.7l-.13-.68a10.59,10.59,0,0,0-6.93,7.88.24.24,0,0,1-.27.17.27.27,0,0,1-.27-.2l-1.27-11.67c-.78-7.16,7.92-11,9.95-11.84-.36-.16-1-.42-1.93-.77-.47.24-1,.48-1.5.73-2.22,1-4.73,2.23-6.48,4.83a.29.29,0,0,1-.3.1.25.25,0,0,1-.22-.2c-.44-5.33.59-7.8,1.07-8.63-1.9.09-8.79.53-10.9,2,2.15,1.36,4.49,5.67,5,9.32,0,.1-.07.18-.19.2a.33.33,0,0,1-.32-.12c-3-4.54-8.78-3.65-10.2-3.36l.26.3.75,0c5.27,0,10.46,3.54,10.89,7.48L216,70.61c0,.09-.07.17-.19.2a.35.35,0,0,1-.31-.11c-3-3.87-12.12-7.45-13.87-8.11-.08.26-.24.78-.46,1.65A29.82,29.82,0,0,1,212,69.91c3.14,2.52,5.28,5.15,5.45,6.71l3.25,29.8c0,.09-.2-1-.32-1s-.12,1.19-.18,1.11"/><g class="cls-6"><g class="cls-27"><path class="cls-24" d="M211.9,43.42c.87,1.27.16-.85-.31-2.26a14,14,0,0,1,.42,1.92c-3.5-5.37-10.85-3.4-10.85-3.4l.34.38a11.6,11.6,0,0,1,10.41,3.37"/></g></g><g class="cls-6"><g class="cls-28"><path class="cls-24" d="M215.3,71.41c1.6,2.48.43-1.71.21-2.89l0-.06.23,2.15c-3.35-4.37-14.29-8.31-14.29-8.31s-.12.32-.35,1.15c3,.84,10.18,3.24,14.21,8"/></g></g><g class="cls-6"><g class="cls-29"><path class="cls-24" d="M219.56,63.74c-.65-6,7.17-11.61,7.17-11.61l-.2-1.06a13,13,0,0,0-1.33.54,1.58,1.58,0,0,1-.39,1c-.84.9-6.29,6.52-6.4,11.71s1.67,20.25,3.14,32.41c1.1,9.11,2.68,10.19,2.73,9.9l0,.06-1.54-14.09-3.15-28.85"/></g></g><g class="cls-6"><g class="cls-30"><path class="cls-24" d="M223.51,37c-1.64,1-7.15,4.83-6.83,10.21s1,10.67,1.42,13c.33,2,.72.75,1-1.11l-1.26-11.56c-.88-8,10.22-11.82,10.22-11.82a24.25,24.25,0,0,0-2.51-1l-1,.51a2.41,2.41,0,0,1-1,1.83"/></g></g><g class="cls-6"><g class="cls-31"><path class="cls-24" d="M215,36.59a30.86,30.86,0,0,0,1.07,5.92c.34,1.66.83-.69,1.49-2.41l-.22.3c-.55-6.72,1.26-8.85,1.26-8.85s-9.54.32-11.76,2.22a6.53,6.53,0,0,1,1.94,1.78,9.63,9.63,0,0,1,1.87-.66c3.89-1,4.24-.76,4.35,1.7"/></g></g><path class="cls-32" d="M204.2,64.9c1.18-.39-.62-1.8-.77-1.83s-2.28-2.44-4.64-4.65-3.49-2.6-2.26-.31c-2.74-2.16-4.3-2-3-.63A12.07,12.07,0,0,0,183.79,56a5.11,5.11,0,0,0,1.54.68c-5.22-.54-6.2,1-6.24,1.12s0,0,1.17.24c-3.92.42-5.18,1.36-5.18,1.36s1.67.35,1.11.72c-5,2.44-7.34,9.46-7.34,9.46l1.15-.33c2.24-1.17,6.36-2.8,13.39-3.81,9.91-1.43,16.15-2,20.81-.53"/><path class="cls-33" d="M168.88,69.78a.36.36,0,0,1-.19-.05.18.18,0,0,1-.09-.21c.1-.29,2.42-7.12,7.44-9.58a2.88,2.88,0,0,0-1-.36.28.28,0,0,1-.2-.15.16.16,0,0,1,.06-.19,9.93,9.93,0,0,1,4-1.24l-.06,0a.19.19,0,0,1,0-.22s.57-1.35,4.35-1.37l.85,0a1.59,1.59,0,0,1-.46-.28.16.16,0,0,1,0-.17.21.21,0,0,1,.14-.12,12.32,12.32,0,0,1,3.38-.46,11.81,11.81,0,0,1,5.78,1.41.39.39,0,0,1,0-.3.56.56,0,0,1,.51-.22,5.32,5.32,0,0,1,2.52,1.12c-.21-.55-.15-.75-.05-.86a.46.46,0,0,1,.35-.14c.2,0,.72,0,2.8,1.93,1.39,1.3,2.7,2.67,3.56,3.58.47.49.91,1,1,1a2.89,2.89,0,0,1,1.28,1.47c.05.32-.14.57-.53.7a.36.36,0,0,1-.22,0,21.72,21.72,0,0,0-6.73-.85,108.31,108.31,0,0,0-13.92,1.39c-6.88,1-11,2.6-13.29,3.79l-1.2.35h-.09m6.78-10.44c.39.12.81.3.9.54,0,.08,0,.24-.18.39-4.21,2.06-6.53,7.45-7.12,9l.64-.18c2.24-1.18,6.45-2.82,13.42-3.82a108.61,108.61,0,0,1,14-1.39,22.57,22.57,0,0,1,6.83.84.24.24,0,0,0,.16-.21c0-.43-.86-1.15-1-1.24s-.14-.05-1.18-1.15c-.86-.9-2.17-2.27-3.54-3.56a8.06,8.06,0,0,0-2.29-1.75c0,.1,0,.41.48,1.27a.16.16,0,0,1-.1.23.35.35,0,0,1-.34,0,6.47,6.47,0,0,0-2.91-1.59c-.09,0-.09.24.37.72a.16.16,0,0,1,0,.26.34.34,0,0,1-.36,0,10.81,10.81,0,0,0-6.31-1.87,12.6,12.6,0,0,0-2.75.32c.21.1.56.24,1.09.43.12,0,.19.14.16.24a.24.24,0,0,1-.28.14,19.5,19.5,0,0,0-2.09-.11c-2.5,0-3.43.63-3.74.94.19,0,.45.06.83.14a.24.24,0,0,1,.22.2c0,.1-.09.17-.21.18a14.8,14.8,0,0,0-4.67,1.1"/><g class="cls-34"><g class="cls-35"><path class="cls-32" d="M203.43,63.07c-.17,0-2.28-2.44-4.64-4.65s-3.49-2.6-2.26-.31c-2.74-2.16-4.3-2-3-.63A12.07,12.07,0,0,0,183.79,56a5.14,5.14,0,0,0,1.54.68c-5.22-.54-6.2,1-6.24,1.12s0,0,1.17.24c-3.93.42-5.18,1.36-5.18,1.36s1.67.35,1.11.72a12.81,12.81,0,0,0-4.69,4.31l.07-.07a10.43,10.43,0,0,1,3.83-2c1.61-.48,3.33-.74,5-1.14.38-.09,1-.16.42-.47a4.14,4.14,0,0,0-1-.37,6.85,6.85,0,0,0-2-.2s-.08-.07,0-.08c2.2-.22,4.43-.35,6.64-.51.22,0,.69,0,.55-.23a1.17,1.17,0,0,0-.49-.44,6,6,0,0,0-1-.4c-.51-.16-1-.3-1.52-.51,0,0-.06-.06,0-.07,2-.52,4.24.55,6.13,1.06a8.94,8.94,0,0,0,1.62.33c.27,0-.25-.7-.31-.76s-.27-.29-.42-.43c-.5-.48-1.1-1-1.11-1.6a0,0,0,0,1,0,0,9,9,0,0,1,3.22.77c1.19.45,2.34,1,3.46,1.52,2.09,1,4.62,2.13,5.28,4,0,0,0,0,0,0a34.3,34.3,0,0,0-6.63.15c-1.91.32-3.72.85-5.6,1.24,0,0-.08,0-.06-.06a3.91,3.91,0,0,1,1.5-1.11c.23-.12.48-.24.7-.38l.22-.13,0,0c-.48.09-1,.19-1.42.29-.93.21-1.89.39-2.77.68a7.11,7.11,0,0,1-2.36.52s-.07-.05,0-.07c.69-.58,1.6-1,2.34-1.52a4.32,4.32,0,0,0,.5-.42,2.62,2.62,0,0,0,.26-.29.21.21,0,0,1-.18.11c-.54.24-1.09.45-1.67.64-2.54.83-5.26,1.35-7.74,2.26a31.47,31.47,0,0,0-6.26,3.07c-.59.38-1.16.79-1.7,1.22-.13.33-.2.53-.2.53l1.15-.33c2.24-1.17,6.36-2.8,13.39-3.82,9.91-1.43,16.14-2,20.81-.53,1.18-.39-.62-1.8-.77-1.83"/></g></g><path class="cls-32" d="M183.39,65.43c-7,1-11.15,2.65-13.39,3.81a63,63,0,0,1,13.8-2.13c7.91-.24,10.34-1.42,10.34-1.42s-1.6,1.34-.79,1.21A25.61,25.61,0,0,1,203.26,65a2.8,2.8,0,0,0,.94-.1c-4.66-1.47-10.9-.9-20.81.53"/><path class="cls-33" d="M170,69.44a.32.32,0,0,1-.25-.11.16.16,0,0,1,.07-.25c2.3-1.2,6.51-2.84,13.48-3.85a108.61,108.61,0,0,1,14-1.39,22.32,22.32,0,0,1,7,.88.23.23,0,0,1,.18.18.18.18,0,0,1-.14.18,2.92,2.92,0,0,1-.89.12h-.16a25.61,25.61,0,0,0-9.78,1.89l-.07,0c-.28,0-.44,0-.53-.15s-.15-.22.31-.72a41.94,41.94,0,0,1-9.37,1.08,63.25,63.25,0,0,0-13.73,2.11H170m27.35-5.21a108.15,108.15,0,0,0-13.92,1.39,47.41,47.41,0,0,0-11.31,2.87,62,62,0,0,1,11.63-1.58c7.71-.24,10.19-1.38,10.21-1.39a.35.35,0,0,1,.35,0,.16.16,0,0,1,0,.26,7,7,0,0,0-.79.76,26.4,26.4,0,0,1,9.51-1.79,23.74,23.74,0,0,0-5.7-.56"/><g class="cls-6"><g class="cls-36"><path class="cls-37" d="M183.39,65.43c-7,1-11.15,2.65-13.39,3.81a63,63,0,0,1,13.8-2.13c7.91-.24,10.34-1.42,10.34-1.42s-1.6,1.34-.79,1.21A25.61,25.61,0,0,1,203.26,65a2.8,2.8,0,0,0,.94-.1c-4.66-1.47-10.9-.9-20.81.53"/></g></g><g class="cls-6"><g class="cls-38"><path class="cls-37" d="M198.87,64.38a20.43,20.43,0,0,1-4.13.44,45,45,0,0,0-4.79.34c-2.82.29-5.55.86-8.34,1.23a13.81,13.81,0,0,1-4,.14A33.69,33.69,0,0,0,170,69.25a63,63,0,0,1,13.8-2.13c7.91-.24,10.34-1.42,10.34-1.42s-1.59,1.34-.79,1.21A25.6,25.6,0,0,1,203.26,65a2.76,2.76,0,0,0,.94-.1,18.93,18.93,0,0,0-4.29-.77c-.35.08-.69.18-1,.25"/></g></g><path class="cls-32" d="M226.09,36.68c-1.37-.11-.49-1.87-.37-1.93s.71-2.86,1.64-5.51,1.78-3.29,2-.81c1.32-2.7,2.9-2.93,2.45-1.27,2.5-4.07,8.51-3.63,8.51-3.63s-.05.23-1.07,1c4.69-1.69,6.56-.44,6.67-.33s0,0-1,.49c4-.48,5.8.13,5.8.13s-1.39.71-.63.94c6.29,1.22,12.78,7.44,12.78,7.44l-1.31-.06a51.72,51.72,0,0,0-15.17-.64c-10.39.87-16.72,1.72-20.31,4.19"/><path class="cls-33" d="M226.11,36.88h0a1,1,0,0,1-.93-.55,2,2,0,0,1,.34-1.69,12.39,12.39,0,0,0,.35-1.22c.28-1.07.71-2.68,1.26-4.24.88-2.5,1.42-2.5,1.65-2.5a.6.6,0,0,1,.34.11c.14.1.3.28.41.82.64-1.05,1.36-1.68,2-1.68a.71.71,0,0,1,.47.16.62.62,0,0,1,.16.24c2.2-2.66,6-3,7.62-3,.38,0,.6,0,.6,0a.33.33,0,0,1,.2.08.17.17,0,0,1,.06.16,1,1,0,0,1-.29.39,11.84,11.84,0,0,1,3.2-.52,4.1,4.1,0,0,1,2.63.63.22.22,0,0,1,.09.21.15.15,0,0,1,0,.07c.52,0,1-.06,1.5-.06a10.54,10.54,0,0,1,3.15.33.24.24,0,0,1,.17.17.17.17,0,0,1-.1.18c-.39.2-.76.49-.75.59,6.32,1.21,12.68,7.25,12.95,7.51a.16.16,0,0,1,0,.21.26.26,0,0,1-.25.1s-.48,0-1.29-.06a52.7,52.7,0,0,0-15.13-.64c-10.68.89-16.74,1.78-20.17,4.14a.3.3,0,0,1-.17,0m2.65-9.8c-.12.08-.53.47-1.14,2.21-.55,1.55-1,3.15-1.25,4.22-.34,1.29-.36,1.33-.48,1.4s-.47,1-.19,1.39a.41.41,0,0,0,.29.17c3.55-2.39,9.66-3.28,20.36-4.18a53.39,53.39,0,0,1,15.28.65l.67,0c-1.46-1.31-7-6-12.25-7-.34-.1-.42-.26-.44-.34-.06-.25.25-.52.55-.73a13,13,0,0,0-2.44-.19,24.29,24.29,0,0,0-2.73.18.33.33,0,0,1-.31-.13.16.16,0,0,1,.08-.24c.32-.16.56-.26.72-.32a4.53,4.53,0,0,0-2-.35,12.7,12.7,0,0,0-4.16.86.35.35,0,0,1-.35-.07.16.16,0,0,1,0-.26,7.85,7.85,0,0,0,.8-.67h-.08c-1.67,0-5.76.37-7.71,3.54a.3.3,0,0,1-.33.09c-.13,0-.21-.14-.18-.24.13-.49.05-.72,0-.78-.29,0-1.11.53-1.92,2.19a.27.27,0,0,1-.29.11.25.25,0,0,1-.23-.2,2.71,2.71,0,0,0-.31-1.33"/><g class="cls-34"><g class="cls-39"><path class="cls-32" d="M225.71,34.74c.14-.08.71-2.86,1.64-5.51s1.78-3.29,2-.81c1.32-2.7,2.9-2.93,2.45-1.27,2.5-4.07,8.51-3.63,8.51-3.63s-.05.23-1.07,1c4.69-1.69,6.56-.44,6.67-.33s0,0-1,.49c4-.48,5.8.13,5.8.13s-1.39.72-.63.94a21.67,21.67,0,0,1,7.12,3.08l-.11,0a15.37,15.37,0,0,0-4.92-1.09c-1.84-.1-3.65,0-5.48,0-.42,0-1.06.07-.69-.36a2.64,2.64,0,0,1,.71-.57,5.51,5.51,0,0,1,1.76-.64s0-.09,0-.08c-2.25.29-4.47.67-6.7,1-.22,0-.65.18-.67-.09a.74.74,0,0,1,.2-.54,3.72,3.72,0,0,1,.69-.6,12.73,12.73,0,0,0,1.15-.83s0-.07,0-.07c-2.22-.05-3.74,1.49-5.24,2.4a6.66,6.66,0,0,1-1.36.68c-.25.08-.18-.73-.16-.8a4.84,4.84,0,0,1,.14-.51,2,2,0,0,0,.1-1.78h0a6.38,6.38,0,0,0-2.62,1.47,25.78,25.78,0,0,0-2.4,2.25c-1.39,1.45-3.15,3.09-2.63,5.06,0,0,0,0,0,0a31.72,31.72,0,0,1,6.46-1.36c2-.12,4.09,0,6.13-.07,0,0,0-.06,0-.07a6.35,6.35,0,0,0-2.11-.73c-.3-.06-.61-.13-.9-.2l-.29-.08-.05,0c.51,0,1,0,1.54,0,1,0,2.05,0,3.08,0a8.2,8.2,0,0,0,2.59,0,0,0,0,0,0,0-.08c-1-.41-2.13-.58-3.16-.93a6.78,6.78,0,0,1-.74-.29c-.14-.07-.29-.14-.42-.22a.33.33,0,0,0,.25.07c.66.11,1.32.19,2,.24,2.94.23,5.86.1,8.8.42A45.53,45.53,0,0,1,260,31.93c.8.24,1.59.5,2.37.79l.51.47s-.48,0-1.31-.06a51.74,51.74,0,0,0-15.17-.64c-10.39.87-16.73,1.72-20.31,4.19-1.37-.11-.49-1.87-.37-1.94"/></g></g><path class="cls-32" d="M246.4,32.49a51.71,51.71,0,0,1,15.17.64A68,68,0,0,0,247,34.21c-7.75,1.55-10.8,1-10.8,1s2.34.92,1.5,1a27.76,27.76,0,0,0-10.67.41,2.87,2.87,0,0,1-1,.11c3.59-2.47,9.93-3.32,20.31-4.19"/><path class="cls-33" d="M226.27,36.88h-.19a.3.3,0,0,1-.24-.14.16.16,0,0,1,.06-.21c3.53-2.43,9.66-3.34,20.46-4.24a53.36,53.36,0,0,1,15.28.65c.13,0,.22.12.21.23a.24.24,0,0,1-.26.17c-.83,0-1.69,0-2.57,0a64.68,64.68,0,0,0-11.9,1.1,47.7,47.7,0,0,1-8.92,1.08h-.77c.8.4.77.57.75.65s-.08.21-.4.23h-.07a34.92,34.92,0,0,0-4.6-.29,23.23,23.23,0,0,0-5.93.68,3.53,3.53,0,0,1-.9.14m25.57-4.45c-1.72,0-3.54.09-5.4.25-9.92.83-15.84,1.65-19.39,3.65a24.32,24.32,0,0,1,6-.67,35.39,35.39,0,0,1,4.31.25,12.86,12.86,0,0,0-1.25-.57c-.12,0-.18-.15-.14-.25a.27.27,0,0,1,.31-.12s2.92.58,10.66-1a65.38,65.38,0,0,1,12-1.11h.17a50,50,0,0,0-7.3-.46"/><g class="cls-6"><g class="cls-40"><path class="cls-37" d="M246.4,32.49a51.71,51.71,0,0,1,15.17.64A68,68,0,0,0,247,34.21c-7.75,1.55-10.8,1-10.8,1s2.34.92,1.5,1a27.76,27.76,0,0,0-10.67.41,2.87,2.87,0,0,1-1,.11c3.59-2.47,9.93-3.32,20.31-4.19"/></g></g><g class="cls-6"><g class="cls-41"><path class="cls-37" d="M230.89,35a21.06,21.06,0,0,0,4.23-.5,43.48,43.48,0,0,1,4.82-.75c2.89-.36,5.85-.42,8.76-.7a12.91,12.91,0,0,0,3.94-.77,44.17,44.17,0,0,1,8.93.89A68.13,68.13,0,0,0,247,34.2c-7.75,1.55-10.8,1-10.8,1s2.34.93,1.5,1a27.76,27.76,0,0,0-10.67.41,2.9,2.9,0,0,1-1,.11A14.09,14.09,0,0,1,229.75,35c.38,0,.76,0,1.15,0"/></g></g><path class="cls-32" d="M227.75,47.15l-.36-.76s-2.23,1.59-.87,5.85,7,4.94,7,4.94l-.52-1a9.59,9.59,0,0,0,2.36.85l-.62-.61s7.35,2.65,13.52-1.24l-1-.3,1.64-.72-.93-.4s3.73-2.26,7.33-2c-2.06-3.8-4.28-5.26-7-6.06,1.07-.26,1.47-.31,1.47-.31s-10.32-6-18.61-.82c.21-.56,0-.81,0-.81s-3,1.23-3.4,3.37"/><path class="cls-33" d="M240.54,57.49a19.66,19.66,0,0,1-5-.64h0a.21.21,0,0,1,.11.15c0,.11-.11.19-.26.2h-.07a8.6,8.6,0,0,1-1.79-.57l.22.42a.19.19,0,0,1,.06.11c0,.11-.1.2-.25.2h-.06c-.06,0-5.84-.76-7.22-5.11s.84-6,.94-6a.34.34,0,0,1,.25,0,.28.28,0,0,1,.2.14l.05.11A7,7,0,0,1,231,43.6a.35.35,0,0,1,.36.07.71.71,0,0,1,.16.44,14.74,14.74,0,0,1,7.24-1.83,24.42,24.42,0,0,1,11.17,3,.19.19,0,0,1,.11.2.22.22,0,0,1-.2.15s-.23,0-.78.15c2.81,1,4.71,2.75,6.43,5.91a.18.18,0,0,1,.06.12c0,.11-.1.2-.25.2h0a13.63,13.63,0,0,0-6.83,1.76L249,54a.22.22,0,0,1,.15.17.18.18,0,0,1-.12.17l-1.18.52.47.14a.25.25,0,0,1,.18.16.16.16,0,0,1-.08.18,14.65,14.65,0,0,1-7.88,2.17m-5.84-1.28.13,0a18.43,18.43,0,0,0,5.67.86,14.18,14.18,0,0,0,7.22-1.87l-.55-.17a.25.25,0,0,1-.18-.17.17.17,0,0,1,.12-.18l1.25-.55-.53-.23a.23.23,0,0,1-.15-.16.17.17,0,0,1,.09-.17,15.08,15.08,0,0,1,7.1-2c-2.18-3.88-4.48-5-6.65-5.66a.24.24,0,0,1-.19-.19.19.19,0,0,1,.17-.18l1-.21a23.94,23.94,0,0,0-10.34-2.63,14,14,0,0,0-7.46,2.06.34.34,0,0,1-.32,0,.19.19,0,0,1-.12-.23,1,1,0,0,0,.08-.42c-.75.38-2.63,1.47-3,3.09a.24.24,0,0,1-.24.15h0a.3.3,0,0,1-.28-.15l-.18-.39c-.53.6-1.53,2.26-.53,5.4,1.08,3.38,5,4.44,6.3,4.7l-.35-.68a.16.16,0,0,1,.08-.22.35.35,0,0,1,.32,0,10.34,10.34,0,0,0,1.49.62l-.11-.1a.16.16,0,0,1,0-.24.28.28,0,0,1,.19-.07"/><path class="cls-42" d="M240,47.34c-5,.19-10.13,1.29-12.79,4-.19.2,0,.44.33.22,3.36-2.48,7.68-3.71,13-3.8,4.46-.08,11.24.59,13.82,3.28.06.06.21-.06.17-.12-2.54-3-9.81-3.76-14.52-3.59"/><g class="cls-34"><g class="cls-43"><path class="cls-32" d="M255.28,51.78c-2.06-3.8-4.28-5.26-7-6.06,1.07-.26,1.47-.31,1.47-.31s-10.32-6-18.61-.82c.21-.56,0-.81,0-.81s-3,1.23-3.41,3.37l-.36-.76s-2.23,1.59-.87,5.85,7,4.94,7,4.94l-.52-1a9.55,9.55,0,0,0,2.36.85l-.62-.61s7.35,2.65,13.52-1.24l-1-.3,1.63-.72-.93-.4s3.73-2.26,7.33-2m-24.66-5.2s4.18-4.29,12.48-1.66c2.79.88-3.36,1.32-6.79,1.93s-7.56,1-5.68-.27m7,7.35c-7.21.54-9-.95-7.28-2.55,0,0,6.82-5.32,17.93-2.29,5.46,1.87-3.43,4.31-10.65,4.84"/></g></g><g class="cls-34"><g class="cls-44"><path class="cls-32" d="M252,48.12a19,19,0,0,0-4.53-1A41.22,41.22,0,0,0,229,49.22s-.06,0-.06-.05a7.79,7.79,0,0,1-.27-.88c0-.2,0-.1,0-.05l-.34.34c-.48.47-1,.92-1.5,1.36,0,0,0,0-.05,0a2.83,2.83,0,0,1-.61-1.25,7.35,7.35,0,0,0,.35,3.57,5,5,0,0,0,.26.66,17.31,17.31,0,0,1,2.2-2.18,12.44,12.44,0,0,1,5.41-2.41,32.53,32.53,0,0,1,8.13-.49,28.07,28.07,0,0,1,7.94,1.39c.6.22,2.08.66,2,1.31a1.28,1.28,0,0,1-.65.81,15.94,15.94,0,0,1-1.67,1,26.8,26.8,0,0,1-3.9,1.71c-.68.23-1.48.27-2.17.5-.39.13.14.07.25.06H245c.4,0,.8,0,1.2-.09,0,0,.08,0,0,0a7.6,7.6,0,0,1-2.18.83c-.45.11-.91.2-1.37.29-.15,0-.57.05-.28.19l.35.18s0,0-.05,0a54.64,54.64,0,0,1-7.22-.51c-1.23-.16-2.46-.34-3.69-.51-.08,0-.7-.08-.7-.09a1.7,1.7,0,0,1,.11.31,4.33,4.33,0,0,0,.26.83s0,0,0,0a5.54,5.54,0,0,1-1,.15,11.72,11.72,0,0,0,3.15,1l-.52-1a9.57,9.57,0,0,0,2.36.85l-.62-.61s7.35,2.65,13.52-1.24l-1-.3,1.63-.72-.93-.4s3.73-2.26,7.33-2A15.32,15.32,0,0,0,253,48.51c-.33-.14-.66-.27-1-.39"/></g></g><g class="cls-45"><g class="cls-46"><path class="cls-32" d="M244.38,48.76a12,12,0,0,0-10,1.58c-.08.06-.08.34.1.28,3.21-1.11,6.23-1.18,9.81-1.26a.31.31,0,0,0,.09-.59"/></g></g><g class="cls-45"><g class="cls-47"><path class="cls-32" d="M234.48,45.34a4.58,4.58,0,0,0-2,.61c-.18.08,0,.4.2.39a5.62,5.62,0,0,0,2.05-.44c.21-.11.09-.54-.2-.55"/></g></g><path class="cls-32" d="M186.13,92.48a7.58,7.58,0,0,1,1-4.43l-.73.17s2.77-5.78,7.53-7.21l-.93-.22a9.06,9.06,0,0,1,5.11-1.71l-.71-.22a10.37,10.37,0,0,1,6.07-.48c.85.22,2-.52,4.72,2.33a6.79,6.79,0,0,1,6.47,3.21c1.48,2.46,2.32,3.91.65,6.61a2.21,2.21,0,0,0-.59-1.29s-.2,1.63-.79,1.8-.7-1.56-.7-1.56.8,4.53-5.43,5A1.83,1.83,0,0,0,208,93s1.16,2.29-6.46,1.1-12.24-3.41-15.46-1.66"/><path class="cls-33" d="M207.84,94.69a.33.33,0,0,1-.24-.09.16.16,0,0,1,0-.21l.06-.09a5.47,5.47,0,0,1-2.29.38,24.76,24.76,0,0,1-3.81-.35c-2.44-.38-4.57-.87-6.45-1.3A29.34,29.34,0,0,0,189,92a5.46,5.46,0,0,0-2.68.62.34.34,0,0,1-.28,0,.22.22,0,0,1-.16-.18,8.16,8.16,0,0,1,.77-4.09l-.11,0a.35.35,0,0,1-.29-.06.17.17,0,0,1-.07-.21c.11-.23,2.62-5.39,7-7.1L193,81a.27.27,0,0,1-.19-.14.15.15,0,0,1,.05-.19,9.13,9.13,0,0,1,4.37-1.7.16.16,0,0,1,0-.08.17.17,0,0,1,.12-.18,11.25,11.25,0,0,1,4-.78,8.66,8.66,0,0,1,2.3.29,2.25,2.25,0,0,0,.51,0c.83,0,2.07,0,4.24,2.26l.56,0a7.16,7.16,0,0,1,6,3.39c1.44,2.39,2.39,4,.65,6.77a.27.27,0,0,1-.28.1.27.27,0,0,1-.23-.18,3.12,3.12,0,0,0-.18-.61c-.13.53-.37,1.17-.82,1.3a.61.61,0,0,1-.64-.18c-.34,1.43-1.56,3.34-5.55,3.65Zm-18.91-3.06a29.72,29.72,0,0,1,6.29,1c1.87.43,4,.91,6.4,1.29,3.83.6,6.11.37,6.21-.56a1.72,1.72,0,0,0-.05-.32c0-.1.05-.2.19-.22a.32.32,0,0,1,.33.14.88.88,0,0,1,.08.46,1.91,1.91,0,0,1-.12.81c4.6-.55,4.8-3.57,4.75-4.51,0-.15,0-.27,0-.27s.1-.19.24-.2h0a.28.28,0,0,1,.29.19,2.34,2.34,0,0,1,0,.29c.1.8.29,1.07.35,1.11a3.15,3.15,0,0,0,.57-1.65.21.21,0,0,1,.18-.16.36.36,0,0,1,.28.06,1.89,1.89,0,0,1,.48.74c1.18-2.29.34-3.68-1-5.87a6.54,6.54,0,0,0-5.52-3.13,5.08,5.08,0,0,0-.65,0,.34.34,0,0,1-.28-.09c-2.06-2.15-3.12-2.17-3.89-2.18a2.87,2.87,0,0,1-.68-.07,7.9,7.9,0,0,0-2.1-.26,10.88,10.88,0,0,0-3.25.55l.15,0c.12,0,.2.13.18.22a.23.23,0,0,1-.24.16,9,9,0,0,0-4.62,1.43l.48.11a.25.25,0,0,1,.21.18.19.19,0,0,1-.15.19c-3.88,1.16-6.45,5.38-7.18,6.7l.17,0a.36.36,0,0,1,.3.07.17.17,0,0,1,0,.23,7,7,0,0,0-1,4,6.43,6.43,0,0,1,2.55-.48"/><path class="cls-42" d="M211.74,81.07c-11-.86-18.8,4.81-24.89,10.66,0,0,0,.12.05.06a84,84,0,0,1,10.73-7.31,26.28,26.28,0,0,1,7.7-2.47,47.38,47.38,0,0,1,6.14-.34c.27,0,.66-.57.27-.6"/><path class="cls-32" d="M213.25,89.48s0,.1,0,.24a2.4,2.4,0,0,0,0-.24"/><path class="cls-33" d="M213.29,89.93h0a.28.28,0,0,1-.29-.2c0-.15,0-.25,0-.25s.1-.2.25-.2a.28.28,0,0,1,.29.19s0,.1,0,.26-.1.2-.25.2"/><path class="cls-32" d="M208,93a2.17,2.17,0,0,1,.06.37A.76.76,0,0,0,208,93"/><path class="cls-33" d="M208.12,93.61h0a.27.27,0,0,1-.27-.2,2,2,0,0,0-.05-.34c0-.1.06-.2.19-.22a.32.32,0,0,1,.33.14.91.91,0,0,1,.07.45.23.23,0,0,1-.25.17"/><g class="cls-34"><g class="cls-48"><path class="cls-32" d="M214.68,83.93a6.79,6.79,0,0,0-6.47-3.21c-2.73-2.85-3.86-2.11-4.72-2.33a10.36,10.36,0,0,0-6.07.48l.71.22A9.05,9.05,0,0,0,193,80.79l.93.22c-4.76,1.42-7.53,7.21-7.53,7.21l.74-.17a7.58,7.58,0,0,0-1,4.43c3.21-1.76,7.84.46,15.46,1.66,5.61.88,6.46-.13,6.52-.73A2.12,2.12,0,0,0,208,93a.75.75,0,0,1,.06.37,1.62,1.62,0,0,1-.28,1.09c5.36-.42,5.51-3.83,5.45-4.77,0-.14,0-.24,0-.24s0,.09,0,.24c.05.47.23,1.45.67,1.32s.79-1.8.79-1.8a2.21,2.21,0,0,1,.59,1.29c1.67-2.7.83-4.15-.65-6.61m-19.27-2.62c4.78-1.82,11.88-2.16,7.77-.34,0,0-7,2.13-10.78,4.84s-1.77-2.68,3-4.5m3.28,9.06c-8,.64-6.24-1.66-4-3.27,0,0,7.58-5.82,14.69-4.76s-2.69,7.39-10.7,8"/></g></g><g class="cls-34"><g class="cls-49"><path class="cls-32" d="M214.68,83.93a6.79,6.79,0,0,0-6.48-3.21,10.26,10.26,0,0,0-1.93-1.63,1.37,1.37,0,0,1,0,.43c-.18.88-1.17,1.42-2.18,1.78a26.87,26.87,0,0,1-2.72.74,21.79,21.79,0,0,0-3.14,1,25.82,25.82,0,0,0-6.56,3.86c-.92.74-1.78,1.51-2.62,2.3-.44.42-.87.84-1.29,1.27l-.55.56.36-.25c2-1.4,3.93-2.88,6-4.23a32.12,32.12,0,0,1,6.72-3.43,21.11,21.11,0,0,1,7.84-1.34c2.35.1,4.73.93,5.58,2.71a3.77,3.77,0,0,1-1,4.15s0,0,0,0a10.24,10.24,0,0,1-.95-1.14c-.17-.21-.26-.39-.37-.1a4.89,4.89,0,0,0-.19.61,5.82,5.82,0,0,1-.88,2.54c-.23.29-1,1.21-1.62.88a2.45,2.45,0,0,1-.64-.61,5.21,5.21,0,0,0-.55-.53c-.34-.27-.48-.08-.75.12a12,12,0,0,1-2.79,1.75,15.84,15.84,0,0,1-4.11.84c-1,.11-2,.17-3,.21,1.46.32,3.05.65,4.81.93,5.61.88,6.46-.13,6.52-.73A2.19,2.19,0,0,0,208,93a.75.75,0,0,1,.06.37,1.62,1.62,0,0,1-.28,1.09c5.36-.42,5.51-3.83,5.45-4.77,0-.14,0-.24,0-.24s0,.09,0,.24c.05.47.22,1.45.67,1.32s.79-1.8.79-1.8a2.21,2.21,0,0,1,.59,1.29c1.67-2.7.83-4.15-.65-6.61"/></g></g><g class="cls-45"><g class="cls-50"><path class="cls-32" d="M205.89,83.1c-4-.14-6.9,1.31-8.72,3.71-.06.08.05.35.2.25,2.56-1.78,5.36-2.51,8.67-3.36.31-.08.19-.59-.15-.6"/></g></g><path class="cls-32" d="M221.35,75.16s3-4.65,12.5.68a5,5,0,0,0-1.7-.42,7.13,7.13,0,0,1,2.51,1.9,6.87,6.87,0,0,0-1.09-.1s4.34,2.91,2.9,5.52-3.43,6.78-3.76,8.38c-2.12-2.33-7.5-3.58-7.5-3.58l.53.9-1.61-.9.64,1.22a27.23,27.23,0,0,1-3.26-1.53,2,2,0,0,0,.57,1.22s-8.67-2.4-9.3-7.51c-.73.59-.68,1-.68,1a3,3,0,0,1,.48-2.83c-1.28.81-1.53.43,0-1.81a6.61,6.61,0,0,1,8.74-2.18"/><path class="cls-33" d="M232.74,91.32a.33.33,0,0,1-.24-.1c-1.65-1.81-5.4-3-6.8-3.35l.29.5a.16.16,0,0,1-.07.23.36.36,0,0,1-.33,0l-.88-.49.31.6a.16.16,0,0,1-.07.21.34.34,0,0,1-.3,0c-.08,0-1.67-.66-2.77-1.24a1.74,1.74,0,0,0,.39.64.16.16,0,0,1,0,.24.31.31,0,0,1-.3.07c-.08,0-8.27-2.35-9.4-7.18a.86.86,0,0,0-.23.5c0,.1-.09.18-.23.19a.31.31,0,0,1-.3-.16,3.25,3.25,0,0,1,.07-2.29l-.18,0a.5.5,0,0,1-.38-.15c-.18-.2-.18-.63,1-2.35A7,7,0,0,1,218,74.12a7.31,7.31,0,0,1,3.2.75,5.79,5.79,0,0,1,4.58-1.79,17.18,17.18,0,0,1,8.18,2.6.18.18,0,0,1,.09.26.31.31,0,0,1-.33.07l-.29-.09a5.71,5.71,0,0,1,1.42,1.31.16.16,0,0,1,0,.21.31.31,0,0,1-.27.07l-.34,0c1.15.9,3.64,3.19,2.45,5.36A45.85,45.85,0,0,0,233,91.17a.22.22,0,0,1-.21.15h0m-7.55-4h.09c.21,0,4.94,1.17,7.28,3.29a54,54,0,0,1,3.66-8c1.35-2.46-2.78-5.26-2.82-5.29a.18.18,0,0,1-.08-.22.25.25,0,0,1,.24-.13s.25,0,.58,0A7.48,7.48,0,0,0,232,75.59a.21.21,0,0,1-.14-.2.21.21,0,0,1,.18-.16h.16a14.74,14.74,0,0,0-6.36-1.74c-3.1,0-4.26,1.76-4.27,1.77a.24.24,0,0,1-.17.1.35.35,0,0,1-.22,0,6.7,6.7,0,0,0-3.11-.8,6.5,6.5,0,0,0-5.24,2.91,5.85,5.85,0,0,0-1,1.87,3.38,3.38,0,0,0,.6-.32.34.34,0,0,1,.35,0,.17.17,0,0,1,.06.26,2.54,2.54,0,0,0-.6,1.89,2.9,2.9,0,0,1,.36-.34.32.32,0,0,1,.29,0,.24.24,0,0,1,.19.18c.51,4.09,6.43,6.44,8.45,7.12a2.27,2.27,0,0,1-.25-.82.18.18,0,0,1,.14-.18.36.36,0,0,1,.29,0,21.63,21.63,0,0,0,2.58,1.25l-.38-.73a.16.16,0,0,1,.08-.23.35.35,0,0,1,.32,0l.82.46-.14-.24a.16.16,0,0,1,0-.21.3.3,0,0,1,.19-.06"/><path class="cls-42" d="M221.94,75.3c-.16-.14-.44.16-.33.28,1.86,2.11,4.06,3.64,5.87,5.77a21.19,21.19,0,0,1,4.67,8.81c0,.07.13,0,.13-.06-.34-5.43-5.43-10.7-10.34-14.8"/><g class="cls-34"><g class="cls-51"><path class="cls-32" d="M233.58,77.23a6.75,6.75,0,0,1,1.09.1,7.13,7.13,0,0,0-2.51-1.9,5,5,0,0,1,1.7.42c-9.49-5.33-12.5-.68-12.5-.68a6.61,6.61,0,0,0-8.74,2.18c-1.55,2.24-1.3,2.62,0,1.81a3,3,0,0,0-.48,2.82s0-.43.68-1c.63,5.11,9.3,7.51,9.3,7.51a2,2,0,0,1-.57-1.22,27.16,27.16,0,0,0,3.26,1.53l-.64-1.22,1.61.9-.53-.9s5.38,1.25,7.5,3.58c.33-1.6,2.32-5.76,3.76-8.38s-2.9-5.52-2.9-5.52m-8,8.72c-3.54-.66-9.72-2-10.54-5.36s1.69-6.23,4.74-4.22c0,0,2.09.73,5.35,4.71s4,5.53.44,4.87m3.88-4.62a27.65,27.65,0,0,0-4.6-5.32c-1.86-2,4.3-1.58,7.44,1.25S231,84,229.46,81.32"/></g></g><g class="cls-34"><g class="cls-52"><path class="cls-32" d="M236.22,79.9a15,15,0,0,1-.89,2.48c-.79,2-2.75,5-4.57,1.65s-4.75-5.86-7.18-8c-1.2-1.06-.57-1.9.37-2.48a4.59,4.59,0,0,0-2.6,1.63,7.13,7.13,0,0,0-3-.82c2,.71,4.18,2.43,7.43,5.45,4.78,4.44,6.16,9.57,3.35,8.1s-10.13-2.45-9.09-1.3c-6.76-2.54-6.26-7.14-6.26-7.14s-.42.34-.83.75c-.18-.81,1.07-2.71,1.07-2.71a6.23,6.23,0,0,0-1.17,1,4.31,4.31,0,0,1,.28-1.79,6.93,6.93,0,0,0-.55.7c-1.55,2.24-1.3,2.62,0,1.81a3,3,0,0,0-.48,2.82s0-.43.68-1c.63,5.11,9.3,7.51,9.3,7.51a2,2,0,0,1-.57-1.22,27.23,27.23,0,0,0,3.26,1.53l-.64-1.22,1.61.9-.53-.9s5.38,1.25,7.5,3.58c.33-1.6,2.32-5.76,3.76-8.38a2.76,2.76,0,0,0-.26-2.85"/></g></g><g class="cls-45"><g class="cls-53"><path class="cls-32" d="M225,82.39c-.86-2.92-3.54-4.86-7.23-5.91-.11,0-.45.08-.28.18a23,23,0,0,1,6.74,5.91c.19.21.84.07.76-.18"/></g></g><g class="cls-45"><g class="cls-54"><path class="cls-32" d="M229.08,76a4.83,4.83,0,0,0-2-.95c-.21-.07-.47.18-.31.31a5.31,5.31,0,0,0,1.77,1c.25.08.67-.21.5-.4"/></g></g><path class="cls-32" d="M202.37,40s-1.67-5.36-12.74-1.22a1.83,1.83,0,0,0,1.32.1A17.56,17.56,0,0,0,185.88,41l1.37-.06s-7.52,2.83-8.68,8.8a14.28,14.28,0,0,1,1.22-.81,15.93,15.93,0,0,0-.86,4c3.73-.4,6.44-.79,7-1.33l-.56.86s10.71-.17,12.41-1.14l-.34.86a4.41,4.41,0,0,0,2-.82s-.75,1.08-.54,1,8.88.38,9-4.13l1.24.69L209,47.35l1.22.58s1.45-6-7.89-7.9"/><path class="cls-33" d="M178.94,53.13a.36.36,0,0,1-.2-.06.19.19,0,0,1-.09-.17,17.77,17.77,0,0,1,.66-3.42l-.54.38a.34.34,0,0,1-.32,0,.2.2,0,0,1-.15-.21c.91-4.69,5.75-7.49,7.84-8.51h-.23a.34.34,0,0,1-.28-.13.15.15,0,0,1,.05-.22,15.45,15.45,0,0,1,4-1.79l-.16-.05a.23.23,0,0,1-.16-.18.18.18,0,0,1,.13-.18A21.82,21.82,0,0,1,196.78,37c4.28,0,5.56,2.26,5.81,2.83,9.32,2,8,8.05,7.95,8.11a.2.2,0,0,1-.15.14.33.33,0,0,1-.25,0l-.78-.37.13,1.23a.18.18,0,0,1-.13.18.36.36,0,0,1-.29,0l-.84-.47c-.35,2.51-3.51,3.91-9,3.95H199a.52.52,0,0,1-.32-.1c-.06-.06-.11-.12,0-.42a5.61,5.61,0,0,1-1.2.32.34.34,0,0,1-.26-.07.17.17,0,0,1-.07-.2l.16-.39c-2.82.79-11.54.93-11.94.94a.3.3,0,0,1-.25-.1.16.16,0,0,1,0-.2l.14-.21a40.16,40.16,0,0,1-6.31,1h0m.82-4.43a.38.38,0,0,1,.17,0A.19.19,0,0,1,180,49a15.71,15.71,0,0,0-.83,3.73c3-.32,6-.71,6.52-1.22a.34.34,0,0,1,.35,0,.19.19,0,0,1,.11.26l-.36.56c3.25-.07,10.52-.36,11.8-1.09a.35.35,0,0,1,.32,0,.18.18,0,0,1,.11.23l-.2.5a3.47,3.47,0,0,0,1.4-.66.33.33,0,0,1,.36,0c.12.06.16.17.1.26-.17.24-.35.52-.46.71,5.44,0,8.36-1.41,8.45-3.94a.19.19,0,0,1,.15-.16.35.35,0,0,1,.27,0l.77.43-.13-1.19a.18.18,0,0,1,.12-.18.36.36,0,0,1,.28,0l.87.42c.15-1.2.19-5.74-7.73-7.38a.26.26,0,0,1-.21-.16c0-.11-.89-2.64-5.29-2.62a20.29,20.29,0,0,0-6.47,1.34,1.34,1.34,0,0,0,.3,0l.21-.05a.33.33,0,0,1,.34.11.16.16,0,0,1-.09.25,1.11,1.11,0,0,1-.32.08,18.36,18.36,0,0,0-4.09,1.58l.52,0a.31.31,0,0,1,.29.15.17.17,0,0,1-.12.23c-.07,0-6.9,2.66-8.4,8,.39-.26.61-.39.63-.4a.31.31,0,0,1,.15,0"/><path class="cls-42" d="M201.66,40.25c-4.7.2-9.55,2.34-13.16,4.29-3.8,2.06-6.13,4.93-8.87,7.68,0,0,0,0,0,0,2.7-2.38,4.87-5,8.27-6.88a41.54,41.54,0,0,1,13.54-4.47c.3-.05.71-.65.2-.63"/><path class="cls-32" d="M190.72,39a1,1,0,0,0,.22-.05l-.22.05"/><path class="cls-33" d="M190.74,39.16a.31.31,0,0,1-.28-.15c0-.1,0-.21.15-.24l.23-.06a.33.33,0,0,1,.34.11.16.16,0,0,1-.09.25,1.19,1.19,0,0,1-.3.08h0"/><g class="cls-34"><g class="cls-55"><path class="cls-32" d="M202.37,40s-1.67-5.36-12.74-1.22a2.16,2.16,0,0,0,1.09.15l.22-.05a1,1,0,0,1-.22.05,16.94,16.94,0,0,0-4.84,2l1.37-.06s-7.52,2.83-8.68,8.8a14.37,14.37,0,0,1,1.22-.81,15.94,15.94,0,0,0-.87,4c3.73-.4,6.44-.79,7-1.33l-.56.86s10.71-.17,12.41-1.14l-.34.86a4.42,4.42,0,0,0,2-.82s-.75,1.08-.54,1,8.88.38,9-4.13l1.23.69L209,47.35l1.22.58s1.45-6-7.89-7.9m-14.74,1.82c6.53-3,12.72-3.42,9-1.43,0,0-7.84,2.46-11,5.14s-4.59-.67,1.93-3.7m13.05,5.36c-5.88,3.27-17,2.86-12.85-.62s11.95-4.8,11.95-4.8c4.17-.37,6.78,2.16.9,5.42"/></g></g><g class="cls-34"><g class="cls-56"><path class="cls-32" d="M202.37,40a3.48,3.48,0,0,0-1-1.42,1.12,1.12,0,0,1,0,.25c-.14,1.12-1.88,1.67-3.1,2-.8.23-1.61.42-2.42.62s-1.87.54-2.78.86c-4.81,1.69-9.25,4-12.11,7.36a16.64,16.64,0,0,0-1,1.33c-.15.22-.29.43-.43.65a3.69,3.69,0,0,1,.65-.42c1.09-.72,2.16-1.46,3.23-2.2a56.88,56.88,0,0,1,6-3.78,29.91,29.91,0,0,1,3.36-1.53c.38-.14.76-.27,1.15-.4A39.58,39.58,0,0,1,198.59,42a11.11,11.11,0,0,1,6-.09c4.3,1.37,2.83,5.19.66,7.1,0,0-.08,0-.09,0a7.29,7.29,0,0,0-.52-.83,4.45,4.45,0,0,1-.32-.52c-.07-.14,0-.23-.14-.08a10.44,10.44,0,0,1-1,1.35,4.66,4.66,0,0,1-2.65,1.49s-.07,0-.06,0a2.76,2.76,0,0,0,.18-1s-.18-1.16-.48-1c-.67.3-1.35.59-2,.85a26.86,26.86,0,0,1-4.55,1.35,16.27,16.27,0,0,1-4.39.34c-.73-.06-1.77.1-2.28-.48-.25-.28-.35-.62-.62-.89a1,1,0,0,0-1.29-.12c-.65.46-1.19,1-1.78,1.5a13.15,13.15,0,0,1-2.39,1.45l-.72.36c3.09-.35,5.28-.71,5.81-1.19l-.56.86s10.71-.17,12.41-1.14l-.34.86a4.41,4.41,0,0,0,2-.82s-.75,1.08-.54,1,8.88.38,9-4.13l1.24.69L209,47.35l1.22.58s1.45-6-7.89-7.9"/></g></g><g class="cls-45"><g class="cls-57"><path class="cls-32" d="M199.69,42.22c-4-.24-7,1.12-8.92,3.47-.06.07,0,.35.19.26,2.65-1.71,5.49-2.36,8.85-3.13.31-.07.22-.58-.12-.6"/></g></g><g class="cls-58"><g class="cls-59"><path class="cls-24" d="M213.91,47.41c-.76-3.7-1.23-7.55-3.31-11.06,0-.07-.18.06-.16.11,1.59,3.43,2.16,7,2.87,10.48a86.46,86.46,0,0,1,1.84,12.46c0,.2.32,0,.32-.12a53.49,53.49,0,0,0-1.56-11.87"/><path class="cls-24" d="M215.91,65.48c0-.06-.13,0-.13.06a64.61,64.61,0,0,0,1.15,7.32c0,.12.24,0,.23-.11a66.64,66.64,0,0,0-1.25-7.27"/><path class="cls-24" d="M219.34,89.3c0-.08-.16,0-.15.07a113.05,113.05,0,0,0,2,16.8c0,.13.26,0,.26-.12-.52-5.57-1.31-11.18-2.15-16.75"/></g></g><path class="cls-24" d="M219.65,30.63s5.35-.87,8.14.61c-.12-2.67-3.07-3.24-4.76-3.36s-3.39,2.75-3.39,2.75"/><path class="cls-25" d="M227.81,31.44a.37.37,0,0,1-.17,0,10.24,10.24,0,0,0-4.64-.82,23.39,23.39,0,0,0-3.28.25.36.36,0,0,1-.28-.07.17.17,0,0,1,0-.21c.18-.3,1.83-3,3.64-2.85s4.9.77,5,3.56a.18.18,0,0,1-.14.17l-.11,0M223,30.17a11.85,11.85,0,0,1,4.52.69c-.32-2-2.57-2.65-4.46-2.78-1.08-.07-2.29,1.4-2.9,2.28a24.72,24.72,0,0,1,2.83-.18"/><g class="cls-6"><g class="cls-60"><path class="cls-24" d="M224.56,29.65h0c-.35-.67,0-1.09.59-1.38a9.39,9.39,0,0,0-2.09-.37c-1.68-.12-3.39,2.75-3.39,2.75s5.35-.87,8.14.61a2.93,2.93,0,0,0-.43-1.43,3.75,3.75,0,0,0-2.79-.16"/></g></g><path class="cls-24" d="M203,32.67s-7.08.23-7.29,4.78c1.45-2,3.62-2.23,7.49-2.12s5.57-1.2,4.45-2.62-4.65,0-4.65,0"/><path class="cls-25" d="M195.76,37.65h-.09a.23.23,0,0,1-.2-.21c.2-4.44,6.77-4.92,7.47-5a9.63,9.63,0,0,1,3-.61,2.39,2.39,0,0,1,2,.75,1.29,1.29,0,0,1,.14,1.64c-.58.8-2.14,1.27-4.28,1.28h-.54l-1.48,0c-2.71,0-4.53.35-5.79,2a.27.27,0,0,1-.22.09m10.17-5.39a9.27,9.27,0,0,0-2.77.58l-.11,0c-.26,0-6,.24-6.92,3.77,1.34-1.23,3.17-1.51,5.58-1.52l1.5,0h.51c1.92,0,3.36-.42,3.84-1.09a1,1,0,0,0-.12-1.25,1.81,1.81,0,0,0-1.52-.53"/><g class="cls-6"><g class="cls-61"><path class="cls-24" d="M207.68,32.71c-1.12-1.42-4.66,0-4.66,0a13.78,13.78,0,0,0-3.47.65h0c1.06-.19,2.23.15,2.4,1.07s-2.24.29-2.9.19a3.9,3.9,0,0,0-2.63.78,3.76,3.76,0,0,0-.73,2.1c1.45-2,3.62-2.23,7.49-2.12s5.57-1.2,4.45-2.62"/></g></g><path class="cls-62" d="M191.34,19.65s-3.07-1.78-5.56-1.57a12.42,12.42,0,0,1,4.54,5.43c.85,2,2-.61,1-3.86"/><path class="cls-63" d="M191,24.41h0c-.55,0-.83-.64-.91-.85a12.22,12.22,0,0,0-4.46-5.33.19.19,0,0,1-.09-.21.24.24,0,0,1,.21-.13c2.56-.22,5.64,1.54,5.77,1.61a.23.23,0,0,1,.11.13c.64,2.13.41,4-.17,4.6a.65.65,0,0,1-.45.19m-4.55-6.14a12.71,12.71,0,0,1,4.15,5.2c.17.41.32.51.36.54.33-.13.88-1.8.16-4.25a12.19,12.19,0,0,0-4.67-1.49"/><g class="cls-6"><g class="cls-64"><path class="cls-37" d="M191.34,19.65a14.46,14.46,0,0,0-1.47-.71,3.93,3.93,0,0,1,.16,1.38s-.07,0-.09,0a17.12,17.12,0,0,1-3.57-2.27,4.39,4.39,0,0,0-.59,0,12.42,12.42,0,0,1,4.54,5.43c.85,2,2-.61,1-3.86"/></g></g><path class="cls-62" d="M195.37,14.71l.76-1.72,1.36,1.67s-1.16,2.69-2.12,0"/><path class="cls-63" d="M196.37,16.08c-.69,0-1-.76-1.26-1.33a.15.15,0,0,1,0-.12l.77-1.72a.25.25,0,0,1,.22-.12.29.29,0,0,1,.26.11l1.36,1.67a.15.15,0,0,1,0,.17c-.13.31-.63,1.33-1.39,1.34m-.72-1.35c.28.75.56.95.67.95s.65-.51.88-1l-1-1.21Z"/><path class="cls-62" d="M199.85,14.18a2,2,0,0,1,.27-1.68,5.83,5.83,0,0,0,.66-1.45l1.56,2.21c.54.77-.58,3.36-2.48.92"/><path class="cls-63" d="M201.38,15.41a2.38,2.38,0,0,1-1.76-1.13,2.06,2.06,0,0,1,.25-1.86,6,6,0,0,0,.64-1.4.23.23,0,0,1,.22-.15A.32.32,0,0,1,201,11l1.56,2.21a1.61,1.61,0,0,1-.21,1.72,1.22,1.22,0,0,1-1,.51m-.51-3.81a9.85,9.85,0,0,1-.5,1,1.87,1.87,0,0,0-.26,1.54c.6.76,1,.88,1.23.87a.75.75,0,0,0,.55-.32,1.33,1.33,0,0,0,.21-1.34l-1.23-1.75"/><path class="cls-62" d="M203.91,12.75l.52-2.36a9.21,9.21,0,0,0,2.34,1.53c1,.33-1,3.67-2.86.82"/><path class="cls-63" d="M205.53,14.09a2.29,2.29,0,0,1-1.86-1.26.16.16,0,0,1,0-.12l.51-2.36a.22.22,0,0,1,.19-.15.34.34,0,0,1,.28.07,8.94,8.94,0,0,0,2.24,1.47.66.66,0,0,1,.42.84,1.93,1.93,0,0,1-1.75,1.51m-1.34-1.36c.42.63.87,1,1.3,1a1.5,1.5,0,0,0,1.26-1.19c0-.24,0-.37-.07-.39a8,8,0,0,1-2.07-1.27Z"/><path class="cls-62" d="M207.27,11.52l.2-2.29a7.38,7.38,0,0,0,2.43,1.47c1.61.63-.46,4.07-2.63.82"/><path class="cls-63" d="M209.19,13.1c-.53,0-1.33-.26-2.16-1.5a.16.16,0,0,1,0-.1l.2-2.29A.21.21,0,0,1,207.4,9a.34.34,0,0,1,.29.08,7.14,7.14,0,0,0,2.33,1.4,1.1,1.1,0,0,1,.69,1.36,1.58,1.58,0,0,1-1.52,1.21m-1.65-1.6c.53.78,1.1,1.21,1.6,1.2a1.16,1.16,0,0,0,1-.91.72.72,0,0,0-.39-.91,8.58,8.58,0,0,1-2.09-1.15Z"/><path class="cls-62" d="M211.54,10.35l-.22-2.85a14.08,14.08,0,0,1,3.87,2.64c1.05,1.31-2.28,2.8-3.65.22"/><path class="cls-63" d="M213.76,12a2.73,2.73,0,0,1-2.47-1.55.15.15,0,0,1,0-.06l-.22-2.86a.17.17,0,0,1,.13-.17.35.35,0,0,1,.28,0,14.19,14.19,0,0,1,4,2.71.92.92,0,0,1,.05,1.18,2.15,2.15,0,0,1-1.72.75m-1.95-1.64a2.12,2.12,0,0,0,1.9,1.24A1.63,1.63,0,0,0,215,11a.61.61,0,0,0,0-.79,12.15,12.15,0,0,0-3.34-2.35Z"/><path class="cls-62" d="M209.51,12.92a12.92,12.92,0,0,0-.24-3.83c4.44,1.56,6.14,2.22,6.89,4.1s-6.07,3.8-6.65-.27"/><path class="cls-63" d="M212.72,15.52c-1.95,0-3.25-1-3.48-2.59A13.09,13.09,0,0,0,209,9.14a.16.16,0,0,1,.08-.2.34.34,0,0,1,.28,0c4.43,1.56,6.26,2.27,7,4.24a1.09,1.09,0,0,1-.34,1.2,5.09,5.09,0,0,1-3.36,1.17m-3.07-6.08a15.64,15.64,0,0,1,.13,3.51,2.6,2.6,0,0,0,2.9,2.18,4.56,4.56,0,0,0,3-1,.82.82,0,0,0,.27-.87c-.68-1.7-2.17-2.35-6.25-3.79"/><path class="cls-62" d="M206,13.81a10.45,10.45,0,0,0,.2-3.13c2.76,1.2,4.94,1.62,5.47,5.69s-6.08.44-5.68-2.56"/><path class="cls-63" d="M210.48,18.38a5.05,5.05,0,0,1-2.93-1.25,4,4,0,0,1-1.83-3.36,10.41,10.41,0,0,0,.21-3.07.17.17,0,0,1,.11-.19.34.34,0,0,1,.28,0l.88.37c2.37,1,4.25,1.75,4.74,5.48a1.78,1.78,0,0,1-.45,1.7,1.55,1.55,0,0,1-1,.32m-4-7.33a12.69,12.69,0,0,1-.26,2.81c-.15,1.11.77,2.29,1.68,3,1.17.94,2.57,1.38,3.13.91a1.52,1.52,0,0,0,.33-1.41c-.46-3.51-2.13-4.19-4.44-5.15l-.44-.18"/><path class="cls-62" d="M201.35,15s0-3.06.83-4.44c1.6,1.37,3.7,2.3,4.58,3.3s1.77,2.92.86,4.13-5.84.94-6.27-3"/><path class="cls-63" d="M205.77,18.88A4.44,4.44,0,0,1,201.08,15c0-.14,0-3.13.85-4.53a.25.25,0,0,1,.2-.11.36.36,0,0,1,.24.08,20.52,20.52,0,0,0,2.38,1.67A10.86,10.86,0,0,1,207,13.81c.89,1,1.86,3,.87,4.34a2.71,2.71,0,0,1-2.09.73M202.28,11a13.3,13.3,0,0,0-.67,4.08,3.9,3.9,0,0,0,4.1,3.42,2.17,2.17,0,0,0,1.66-.54c.87-1.16-.06-3-.84-3.92a10.29,10.29,0,0,0-2.11-1.56A24.84,24.84,0,0,1,202.28,11"/><path class="cls-62" d="M196.17,15.78a16.66,16.66,0,0,1,3-3.58c.31,1.21,1.65,1.87,2.42,3.48s.09,2.86-1.07,3.1-5.33-.21-4.32-3"/><path class="cls-63" d="M199.85,19A5.47,5.47,0,0,1,196.36,18a1.93,1.93,0,0,1-.46-2.24,16.49,16.49,0,0,1,3-3.65.32.32,0,0,1,.28-.05.26.26,0,0,1,.2.17,3.91,3.91,0,0,0,1,1.56,7.71,7.71,0,0,1,1.37,1.9,2.54,2.54,0,0,1,0,2.52,2,2,0,0,1-1.24.82,3.61,3.61,0,0,1-.73.06M199,12.63a17.63,17.63,0,0,0-2.6,3.25,1.61,1.61,0,0,0,.37,1.86,4.83,4.83,0,0,0,3,.91,3.37,3.37,0,0,0,.59,0,1.48,1.48,0,0,0,.94-.63,2.25,2.25,0,0,0,0-2.22,7.11,7.11,0,0,0-1.3-1.8,5.57,5.57,0,0,1-1-1.32"/><path class="cls-62" d="M204.64,18.11s-1-4.78-2.2-6.17c3.68,2.44,4.55,3,5.86,6s-3.08,3-3.66.22"/><path class="cls-63" d="M207.13,20.35a2.8,2.8,0,0,1-2.75-2.22s-1-4.75-2.16-6.09a.16.16,0,0,1,0-.26.35.35,0,0,1,.36,0c3.63,2.41,4.6,3.05,5.94,6.05a1.76,1.76,0,0,1-.1,2,1.82,1.82,0,0,1-1.33.5m-3.89-7.62a26.56,26.56,0,0,1,1.67,5.37,2.26,2.26,0,0,0,2.18,1.85,1.25,1.25,0,0,0,.92-.35,1.48,1.48,0,0,0,0-1.65c-1.17-2.61-2-3.33-4.81-5.22"/><g class="cls-6"><g class="cls-65"><path class="cls-37" d="M208.3,17.89a8.79,8.79,0,0,0-3.07-4c0,.09,0,.18.06.27a1.23,1.23,0,0,1-.08.89.49.49,0,0,1-.61.11,3.68,3.68,0,0,1-1.08-1.73A5.2,5.2,0,0,0,202.6,12l-.16-.11c1.23,1.39,2.2,6.17,2.2,6.17.57,2.79,5,2.7,3.66-.22"/></g></g><path class="cls-62" d="M201.39,19.59s-.49-4.45-1.37-5.91c4.29,2.24,5.64,4.76,6.43,7.08s-4.33,2.29-5.06-1.17"/><path class="cls-63" d="M204.93,22.57a3.85,3.85,0,0,1-3.81-3c0-.06-.49-4.45-1.34-5.86a.16.16,0,0,1,.07-.23.34.34,0,0,1,.32,0c4.39,2.29,5.77,4.93,6.55,7.21a1.19,1.19,0,0,1-.25,1.33,2.2,2.2,0,0,1-1.54.51m-4.37-8.36a27.82,27.82,0,0,1,1.1,5.38,3.29,3.29,0,0,0,3.23,2.58A1.63,1.63,0,0,0,206,21.8a.9.9,0,0,0,.17-1,11.13,11.13,0,0,0-5.64-6.59"/><g class="cls-6"><g class="cls-66"><path class="cls-37" d="M206.46,20.76a11.31,11.31,0,0,0-1.83-3.48.61.61,0,0,1,0,.69c-.38.44-1,.3-1.46-.06A3.5,3.5,0,0,1,202,16.36a11,11,0,0,0-1-2.15c-.3-.18-.61-.36-.94-.53.88,1.46,1.37,5.91,1.37,5.91.73,3.45,5.86,3.49,5.07,1.17"/></g></g><path class="cls-62" d="M215.73,11.94a8.11,8.11,0,0,1-1.86-6.31,6.34,6.34,0,0,0,4.59,3.43c2.11.46,4,5,2.3,5.44s-5-2.57-5-2.57"/><path class="cls-63" d="M220.46,14.74c-1.85,0-4.81-2.57-4.93-2.69a8.19,8.19,0,0,1-1.92-6.47.23.23,0,0,1,.23-.16.31.31,0,0,1,.29.14,6.05,6.05,0,0,0,4.4,3.31c1.65.36,3,2.74,3.13,4.22.1.88-.18,1.45-.79,1.61a1.85,1.85,0,0,1-.41,0m-6.4-8.34a8.13,8.13,0,0,0,1.89,5.43c.78.68,3.15,2.52,4.47,2.51a1,1,0,0,0,.25,0c.36-.09.53-.54.46-1.22-.18-1.51-1.46-3.57-2.71-3.84a6.52,6.52,0,0,1-4.35-2.85"/><g class="cls-6"><g class="cls-67"><path class="cls-37" d="M218.47,9.06a7,7,0,0,1-2.36-.94c.59.85,1.26,2,.29,2.53-.47.27-1.12-.33-1.34-.57a3.88,3.88,0,0,1-.9-1.66,9,9,0,0,1-.29-2.78,8.11,8.11,0,0,0,1.86,6.3s3.38,3,5,2.57-.19-5-2.3-5.44"/></g></g><path class="cls-62" d="M215.71,13.4A6.14,6.14,0,0,1,214.35,10s.46,1,2.81,1.91,4.14,2.51,4,3.77-4-.11-5.46-2.3"/><path class="cls-63" d="M220.43,16.38a7.36,7.36,0,0,1-5-2.9A6.24,6.24,0,0,1,214.08,10c0-.1.09-.18.22-.19a.32.32,0,0,1,.3.15s.48.93,2.67,1.79c2.55,1,4.3,2.67,4.16,4,0,.41-.41.65-1,.65m-5.73-5.61a6.52,6.52,0,0,0,1.23,2.53A6.78,6.78,0,0,0,220.39,16c.42,0,.49-.17.51-.32.12-1.13-1.54-2.66-3.85-3.57a7.93,7.93,0,0,1-2.35-1.33"/><path class="cls-62" d="M213.45,18.2A7.4,7.4,0,0,1,210.76,10c1,1.32,2.65,2.11,5,2.77s1.63,8.37-2.28,5.47"/><path class="cls-63" d="M215.09,19.05a3.09,3.09,0,0,1-1.82-.72,7.51,7.51,0,0,1-2.78-8.42.23.23,0,0,1,.22-.15.33.33,0,0,1,.28.11c.83,1.15,2.27,1.95,4.82,2.67,1.27.36,1.7,2.29,1.45,3.92s-1.05,2.58-2.17,2.58m-4.18-8.53a7.21,7.21,0,0,0,2.71,7.53,2.51,2.51,0,0,0,1.43.6c.81,0,1.47-.89,1.68-2.26.24-1.62-.26-3.25-1.08-3.48a10,10,0,0,1-4.74-2.4"/><g class="cls-6"><g class="cls-68"><path class="cls-37" d="M215.72,12.73a14.73,14.73,0,0,1-3.13-1.21.94.94,0,0,1-.32.57c-.6.5-1.44-.11-1.75-.55l0-.05a7.3,7.3,0,0,0,3,6.71c3.91,2.9,4.59-4.82,2.28-5.47"/></g></g><path class="cls-62" d="M208.82,18.56a10.92,10.92,0,0,1-1-6.58c1.23,2.19,5.1,5.56,5.1,5.56s.87,7.11-4.11,1"/><path class="cls-63" d="M211.93,21.22c-.84,0-1.9-.81-3.34-2.57a10.92,10.92,0,0,1-1-6.72.23.23,0,0,1,.23-.15.32.32,0,0,1,.28.13c1.19,2.13,5,5.47,5,5.5a.19.19,0,0,1,.07.12c0,.28.3,2.72-.6,3.46a1,1,0,0,1-.67.23M208,12.68a11.11,11.11,0,0,0,1.08,5.81c1.66,2,2.48,2.33,2.82,2.33a.47.47,0,0,0,.3-.11c.62-.51.57-2.36.48-3.11A35.23,35.23,0,0,1,208,12.68"/><g class="cls-6"><g class="cls-69"><path class="cls-37" d="M212.93,17.54s-.79-.69-1.76-1.64c.19.54.22,1.09-.37,1.33s-1.12-.47-1.37-.7a4.46,4.46,0,0,1-1.15-1.77,9.44,9.44,0,0,1-.46-2.69,11,11,0,0,0,1,6.49c5,6.09,4.11-1,4.11-1"/></g></g><path class="cls-62" d="M227.12,12.61s-2.42-4.11.25-7.58C225.24,6.16,223,8,225.95,12.61c1,1.19,1.74,1.12,1.17,0"/><path class="cls-63" d="M227.14,13.68h0c-.48,0-1-.53-1.42-1-2.93-4.65-.9-6.57,1.47-7.85a.35.35,0,0,1,.34,0,.17.17,0,0,1,.06.25c-2.58,3.35-.26,7.37-.24,7.41.25.49.29.83.13,1a.46.46,0,0,1-.35.14m-.58-7.9c-1.71,1.2-2.71,3.06-.37,6.76a2.65,2.65,0,0,0,.85.73,1.15,1.15,0,0,0-.18-.6c-.09-.15-2.08-3.6-.3-6.89"/><path class="cls-62" d="M227.31,13.54s-4.44-6.1-4.46-8c0,0-1.71,1.61.23,4.59s5.15,5.23,4.23,3.37"/><path class="cls-63" d="M227.32,14.41h0c-.87,0-3.14-2.1-4.49-4.17-2-3.06-.28-4.73-.21-4.79a.32.32,0,0,1,.3-.05.23.23,0,0,1,.19.2c0,1.79,4.38,7.8,4.43,7.86.22.44.25.69.11.84a.44.44,0,0,1-.33.13M222.7,6.23c-.34.67-.61,2,.62,3.86A12,12,0,0,0,227.2,14a1.2,1.2,0,0,0-.14-.4c-.15-.2-3.65-5-4.35-7.36"/><path class="cls-62" d="M222.32,16.36s-5.26-5.36-5-9.22c1.56,1.12,4.16,1.11,6.58,2.69s3.44,3.51,3.26,6-3.16,2.28-4.79.49"/><path class="cls-63" d="M225.22,17.93a4.38,4.38,0,0,1-3.12-1.47c-.21-.21-5.3-5.46-5.1-9.34a.19.19,0,0,1,.16-.17.35.35,0,0,1,.29,0,8.66,8.66,0,0,0,2.64,1.06A13.88,13.88,0,0,1,224,9.69c2.47,1.62,3.54,3.59,3.36,6.2a2,2,0,0,1-2.17,2M217.54,7.56c.15,3.71,4.94,8.64,5,8.69a3.79,3.79,0,0,0,2.64,1.29,1.61,1.61,0,0,0,1.67-1.69c.17-2.48-.83-4.34-3.16-5.87a13.35,13.35,0,0,0-3.76-1.55,11.94,11.94,0,0,1-2.38-.87"/><g class="cls-6"><g class="cls-70"><path class="cls-37" d="M223.85,9.83A9.81,9.81,0,0,0,222.2,9a4.48,4.48,0,0,1,.35.53c.16.31.37.9-.21,1a4,4,0,0,1-2.17-.61l-.67-.31s-.22-.12-.14,0l.25.33c.38.47.81.92,1.2,1.39s1.48,1.71.95,2.42c-.35.47-1.26-.1-1.57-.34a5.21,5.21,0,0,1-1.58-2.2,20.65,20.65,0,0,1-1.26-4l-.07,0c-.21,3.86,5,9.22,5,9.22,1.63,1.79,4.62,2,4.79-.49s-.85-4.45-3.26-6"/></g></g><path class="cls-62" d="M215.43,19.12s-1.75-4.51-4.1-6.3c5.78-.5,9.9.21,11,3.53s-4.35,6.21-6.88,2.76"/><path class="cls-63" d="M218.43,20.85a3.9,3.9,0,0,1-3.23-1.64c0-.09-1.78-4.52-4.05-6.25a.18.18,0,0,1-.07-.2.23.23,0,0,1,.21-.13c1.05-.09,2-.14,2.92-.14,4.78,0,7.52,1.23,8.37,3.84a3,3,0,0,1-.93,3.2,4.75,4.75,0,0,1-3.22,1.32M211.88,13c2.19,1.94,3.75,5.92,3.82,6.1a3.25,3.25,0,0,0,2.7,1.37,4.18,4.18,0,0,0,2.82-1.18,2.74,2.74,0,0,0,.85-2.88c-.79-2.42-3.27-3.53-7.8-3.51-.73,0-1.53,0-2.37.1"/><g class="cls-6"><g class="cls-71"><path class="cls-37" d="M222.32,16.36c-.9-2.77-3.92-3.72-8.26-3.67A21.2,21.2,0,0,1,216.39,15c.49.61,1.15,1.36,1.06,2.08-.06.44-.65.37-1.06.18a6.55,6.55,0,0,1-1.92-1.48,15.92,15.92,0,0,0-2.15-2,21.06,21.06,0,0,1,3.11,5.35c2.53,3.45,7.95.42,6.88-2.76"/></g></g><path class="cls-62" d="M192.74,18.51s2.88-3.27.91-5.66c3.36,2,3.88,4.3,4.53,6.1s-4.67,5.74-5.44-.44"/><path class="cls-63" d="M195.24,22c-.87,0-2.38-.45-2.76-3.54a.17.17,0,0,1,0-.12s2.76-3.2.91-5.45a.16.16,0,0,1,0-.25.34.34,0,0,1,.34,0,9.18,9.18,0,0,1,4.45,5.7l.18.52a2.11,2.11,0,0,1-.79,2,3.6,3.6,0,0,1-2.41,1.1M193,18.57c.26,2,1,3.09,2.17,3.08a3.09,3.09,0,0,0,2-1,1.85,1.85,0,0,0,.71-1.71l-.18-.52a8.8,8.8,0,0,0-3.36-4.89c.89,2.16-1,4.58-1.36,5"/><g class="cls-6"><g class="cls-72"><path class="cls-37" d="M198.18,18.95a10.66,10.66,0,0,0-2.37-4.43c.62,1,.92,2.13.06,3.08-.12.13-.5.53-.81.32-.5-.35-.26-1.18-.13-1.58a2.51,2.51,0,0,0-.14-2.52,4,4,0,0,0-.66-.67l-.47-.3c2,2.39-.91,5.66-.91,5.66.77,6.18,6.08,2.23,5.44.44"/></g></g><path class="cls-62" d="M197.75,22.41s-1.83-3.58,1.48-7.79a44.68,44.68,0,0,0,4.49,6.63s3,4.77-.7,5.13-5.48-3.36-5.28-4"/><path class="cls-63" d="M202.58,26.59A5.11,5.11,0,0,1,199,25.21a4.43,4.43,0,0,1-1.58-2.79c-.22-.48-1.63-3.9,1.53-7.9a.28.28,0,0,1,.26-.09.29.29,0,0,1,.23.14A44.85,44.85,0,0,0,204,21.15c.09.14,1.93,3.07.88,4.57a2.28,2.28,0,0,1-1.76.84l-.5,0M199.2,15.09C196.36,19,198,22.32,198,22.35a.16.16,0,0,1,0,.12,4,4,0,0,0,1.45,2.5,4.53,4.53,0,0,0,3.52,1.2,1.77,1.77,0,0,0,1.38-.65c.93-1.34-.85-4.18-.87-4.2a46.39,46.39,0,0,1-4.29-6.23"/><g class="cls-6"><g class="cls-73"><path class="cls-37" d="M203.72,21.24s-1-1.22-2.16-2.86c.25.61.44,1.36,0,1.8-.32.29-.74,0-1-.27.15.58.4,1.33-.14,1.72-.74.54-1.63-.49-2-.92a4.48,4.48,0,0,1-.92-2.9,6.72,6.72,0,0,0,.2,4.6c-.2.6,1.55,4.32,5.28,4s.7-5.13.7-5.13"/></g></g><path class="cls-62" d="M191.21,24.24a10.2,10.2,0,0,1-.56-5.12c.39-3.06-.34-4-.34-4s4.32,3.37,5,6.29-.59,7.79-4.09,2.81"/><path class="cls-63" d="M193.87,26.58c-.87,0-1.82-.74-2.89-2.26a10.13,10.13,0,0,1-.59-5.23c.37-2.92-.3-3.86-.31-3.87a.16.16,0,0,1,.07-.25.35.35,0,0,1,.35,0c.18.14,4.39,3.45,5.07,6.4.38,1.64.19,3.94-.78,4.81a1.35,1.35,0,0,1-.92.36m-3-10.68a9.39,9.39,0,0,1,0,3.25,10.17,10.17,0,0,0,.55,5c1.23,1.73,2,2,2.35,2a.79.79,0,0,0,.54-.23c.84-.75,1-3,.68-4.51-.48-2.09-2.9-4.44-4.16-5.54"/><g class="cls-6"><g class="cls-74"><path class="cls-37" d="M195.3,21.42a10.72,10.72,0,0,0-2.91-4.4,9.64,9.64,0,0,1,.8,2,3.94,3.94,0,0,1,.1,2.38.67.67,0,0,1-1.14.31,2.24,2.24,0,0,1-.87-1.84,5.48,5.48,0,0,0-.53-2.73,12.29,12.29,0,0,1-.1,2,10.19,10.19,0,0,0,.56,5.12c3.51,5,4.77.11,4.09-2.82"/></g></g><path class="cls-62" d="M224.46,16s-.62-3.89-2.61-4.82c2.51.19,4.1,3,4.23,3.57S224.46,16,224.46,16"/><path class="cls-63" d="M224.48,16.25l-.14,0a.23.23,0,0,1-.15-.16s-.63-3.8-2.48-4.67c-.11-.05-.16-.15-.13-.23a.25.25,0,0,1,.27-.13c2.68.2,4.35,3.16,4.49,3.75s-1.42,1.32-1.74,1.45l-.12,0m-1.69-4.61a8.75,8.75,0,0,1,1.88,4.08c.58-.28,1.19-.67,1.14-.91a6.06,6.06,0,0,0-3-3.17"/><path class="cls-62" d="M212.19,24s-1.32-3.21.58-8a14,14,0,0,0,6.5,4.15c.27,2.86-4,7.26-7.07,3.83"/><path class="cls-63" d="M214.74,25.5A3.62,3.62,0,0,1,212,24.15l0-.06c-.05-.13-1.32-3.33.58-8.11a.25.25,0,0,1,.24-.13A.31.31,0,0,1,213,16a13.94,13.94,0,0,0,6.29,4,.25.25,0,0,1,.23.2c.2,2.2-2.18,5.27-4.8,5.28M212.44,24a3,3,0,0,0,2.26,1.12c2.23,0,4.38-2.74,4.31-4.73a15.32,15.32,0,0,1-6.14-3.8,11.28,11.28,0,0,0-.42,7.4"/><g class="cls-6"><g class="cls-75"><path class="cls-37" d="M216.24,18.91a1.66,1.66,0,0,1-.18.38,1.73,1.73,0,0,1-1.62.78,2.62,2.62,0,0,1-1.84-1.28,2.38,2.38,0,0,1-.36-1.11,10.64,10.64,0,0,0,0,6.37c3,3.42,7.34-1,7.08-3.83a9.88,9.88,0,0,1-3-1.31"/></g></g><path class="cls-62" d="M195.68,18.43s-.12,3,7.18,7c3.21,2.28-.08,5.39-4.61,3.47s-7-5.27-2.58-10.47"/><path class="cls-63" d="M201,29.71a7.32,7.32,0,0,1-2.91-.63C195.6,28,194,26.63,193.37,25c-.75-1.95,0-4.19,2.08-6.68a.31.31,0,0,1,.31-.07.23.23,0,0,1,.19.21s0,3,7.07,6.83c1.22.86,1.68,1.93,1.24,2.86A3.45,3.45,0,0,1,201,29.71M195.51,19c-1.74,2.2-2.28,4.18-1.63,5.89.58,1.51,2.09,2.8,4.49,3.82a6.64,6.64,0,0,0,2.62.57A3,3,0,0,0,203.74,28c.37-.79,0-1.67-1.06-2.41-5.48-3-6.84-5.45-7.17-6.55"/><g class="cls-6"><g class="cls-76"><path class="cls-37" d="M202.86,25.44a20.84,20.84,0,0,1-5.72-4.25,5.25,5.25,0,0,1,.7,1.73,1.21,1.21,0,0,1-.91,1.47,2.46,2.46,0,0,1-2.17-.77,2.24,2.24,0,0,1-.7-2.18,10,10,0,0,1,1.63-2.88.92.92,0,0,1,0-.13c-4.44,5.2-1.94,8.55,2.58,10.47s7.82-1.19,4.6-3.47"/></g></g><path class="cls-62" d="M203.64,26.38s-3.13-3.38.1-7.68c.82,1.94,3.8,5.22,6.83,7,2,2.53-.46,7.49-6.93.64"/><path class="cls-63" d="M209.22,30.06c-1.1,0-3-.61-5.81-3.57a6.11,6.11,0,0,1,.08-7.89.27.27,0,0,1,.26-.09.28.28,0,0,1,.23.15c.78,1.86,3.68,5.1,6.73,6.94l.07.06A3.06,3.06,0,0,1,211,29.2a2.18,2.18,0,0,1-1.82.86M203.7,19.2a5.73,5.73,0,0,0,.15,7.08c2.79,3,4.54,3.39,5.33,3.38a1.64,1.64,0,0,0,1.38-.67,2.72,2.72,0,0,0-.2-3.11,20.61,20.61,0,0,1-6.67-6.67"/><g class="cls-6"><g class="cls-77"><path class="cls-37" d="M210.57,25.75c-3-1.83-6-5.11-6.83-7l0,0,0,.24a13.33,13.33,0,0,0,1.52,3q.54.82,1.17,1.62c.39.5.85,1,1.19,1.5.2.31.63,1.05-.06,1.18a4,4,0,0,1-2.28-.59c-3.05-1.6-2.13-4.33-1.65-6.75h0a5.88,5.88,0,0,0,.08,7.41c6.47,6.85,8.9,1.9,6.94-.64"/></g></g><path class="cls-62" d="M186.8,21.82a6.81,6.81,0,0,1,3.81,3.74c1.41,3,2.19,7.72,8,7-2.55-3.58-5.05-9.83-11.85-10.73"/><path class="cls-63" d="M197.55,32.82h0c-4.27,0-5.5-3-6.58-5.76-.21-.52-.4-1-.61-1.46a6.64,6.64,0,0,0-3.64-3.6c-.13,0-.21-.14-.18-.24a.26.26,0,0,1,.29-.14c5.7.75,8.44,5.14,10.65,8.67.49.78,1,1.53,1.41,2.17a.15.15,0,0,1,0,.18.24.24,0,0,1-.18.1,9.74,9.74,0,0,1-1.16.08M188.21,22.3a7.71,7.71,0,0,1,2.66,3.21c.21.46.41,1,.62,1.48,1,2.56,2.19,5.47,6,5.44h0c.23,0,.48,0,.73,0-.41-.6-.82-1.26-1.26-2-1.94-3.12-4.32-6.93-8.78-8.14"/><path class="cls-62" d="M218.93,19.72s-.64-4-2.37-6.32c4.92,1.22,7.26,2.36,8,3.75s-4.31,4.31-5.65,2.57"/><path class="cls-63" d="M220.28,20.46a1.89,1.89,0,0,1-1.58-.65.17.17,0,0,1,0-.08s-.66-4-2.34-6.25a.15.15,0,0,1,0-.22.32.32,0,0,1,.28-.06c4.93,1.23,7.39,2.39,8.2,3.88.21.38.08.87-.38,1.4a6.5,6.5,0,0,1-4.17,2m-1.08-.79a1.26,1.26,0,0,0,1,.39A6,6,0,0,0,224,18.25c.36-.41.48-.79.34-1-.7-1.28-2.94-2.36-7.24-3.47a17.89,17.89,0,0,1,2.1,5.93"/><g class="cls-6"><g class="cls-78"><path class="cls-37" d="M224.58,17.14c-.46-.85-1.53-1.6-3.4-2.34a1.64,1.64,0,0,1,0,.76c-.24.8-1.63,1-2.5.46a3.86,3.86,0,0,1-1.22-1.15,20,20,0,0,1,1.5,4.86c1.34,1.74,6.41-1.18,5.65-2.58"/></g></g><path class="cls-62" d="M229.08,13.33s-.88-3.09-.28-5a7.91,7.91,0,0,0-2.86,7.15c.24,2.24,2,3.63,3.14-2.11"/><path class="cls-63" d="M227.12,17.59h0c-.9,0-1.34-1.15-1.45-2.14a8,8,0,0,1,2.93-7.3.34.34,0,0,1,.32,0,.2.2,0,0,1,.14.23c-.58,1.88.27,4.92.28,5a.16.16,0,0,1,0,.07c-.55,2.79-1.29,4.21-2.23,4.21M228.38,9a7.9,7.9,0,0,0-2.17,6.46c.13,1.15.6,1.77.87,1.77s1.13-.82,1.73-3.87A12.63,12.63,0,0,1,228.38,9"/><path class="cls-62" d="M206.23,15.38a8.31,8.31,0,0,0,4.15,10.82c3.55,1.25,4.82-3.55,1.11-6.26a31.91,31.91,0,0,1-5.26-4.56"/><path class="cls-63" d="M211.51,26.6h0a3.64,3.64,0,0,1-1.23-.22c-7.39-4-4.33-11-4.3-11.08a.24.24,0,0,1,.22-.12.3.3,0,0,1,.26.1,32.07,32.07,0,0,0,5.21,4.52c2.26,1.64,2.73,4,2,5.44a2.35,2.35,0,0,1-2.19,1.36m-5.17-10.76c-.51,1.5-1.84,6.92,4.19,10.2a3,3,0,0,0,.94.16h0a1.87,1.87,0,0,0,1.73-1.12c.62-1.3.17-3.5-1.89-5a36.31,36.31,0,0,1-5-4.23"/><g class="cls-6"><g class="cls-79"><path class="cls-37" d="M211.48,19.94a39.74,39.74,0,0,1-4.34-3.61,7.38,7.38,0,0,0,.39.88c.6,1.13,1.82,2,2.62,3a4.08,4.08,0,0,1,1,1.87c0,.47-.21.83-.88.88a1.8,1.8,0,0,1-1.09-.29,5.23,5.23,0,0,1-1.83-2.59,18.26,18.26,0,0,1-1.06-3.72c-.05-.27-.11-.56-.15-.85-.4,1-2.43,7.06,4.21,10.67,3.55,1.25,4.82-3.55,1.11-6.26"/></g></g><path class="cls-62" d="M226.61,18.48s-.12-6,4.76-8.21c-1.32,2.65-1.49,4.8-.83,6.54s.46,4.24-2,6.85a39.07,39.07,0,0,1-1.91-5.18"/><path class="cls-63" d="M228.55,23.86h-.06a.28.28,0,0,1-.22-.14,40,40,0,0,1-1.92-5.21c0-.29-.07-6.16,4.87-8.4a.35.35,0,0,1,.32,0,.18.18,0,0,1,.09.23c-1.23,2.46-1.51,4.62-.83,6.42.84,2.2.09,4.76-2,7a.28.28,0,0,1-.2.08m-1.66-5.37a41.28,41.28,0,0,0,1.71,4.72c2.57-2.92,2-5.4,1.68-6.36a7.84,7.84,0,0,1,.55-6c-4,2.37-3.95,7.63-3.94,7.68"/><g class="cls-6"><g class="cls-80"><path class="cls-37" d="M230.59,12.16c-.16.25-.32.51-.45.76a4.89,4.89,0,0,0-.7,3.72,6.06,6.06,0,0,0,.83,1.49c.19.28.46.65.38,1-.12.51-.74.71-1.31.33a3.48,3.48,0,0,1-1.41-1.91c-.45-1.66.49-3.26,1.55-4.61.44-.56.93-1.09,1.42-1.62.14-.34.29-.68.47-1-4.87,2.22-4.76,8.21-4.76,8.21a38.85,38.85,0,0,0,1.91,5.18c2.48-2.61,2.67-5.1,2-6.85a6.91,6.91,0,0,1,.05-4.65"/></g></g><path class="cls-62" d="M222.27,23.09s-2.53-5.33,4.85-9.81c-1.34,2.5-.54,4.3.94,6.13s2,6.32-2.9,7.4c-1.07.1-2.9-3.73-2.9-3.73"/><path class="cls-63" d="M225.15,27c-1.18,0-2.7-3-3.13-3.87a6.1,6.1,0,0,1-.36-3.31c.27-1.76,1.41-4.35,5.29-6.7a.35.35,0,0,1,.34,0,.18.18,0,0,1,.1.24c-1.29,2.4-.57,4.11.92,6a5.15,5.15,0,0,1,.64,5.1A5,5,0,0,1,225.26,27h-.11m1.38-13.08c-6.22,4.24-4,9-4,9.09.83,1.73,2.06,3.58,2.58,3.58l0,.2v-.2a4.49,4.49,0,0,0,3.31-2.35,4.79,4.79,0,0,0-.59-4.76c-1.23-1.52-2.21-3.25-1.3-5.57"/><g class="cls-6"><g class="cls-81"><path class="cls-37" d="M227.09,13.36l-.71.8a3.76,3.76,0,0,0-.89,2.6c.28,1.84,2.48,3.28,2.64,5.15,0,.37-.19,1.31-1,1.1a1.55,1.55,0,0,1-.48-.23c.08.11.17.21.25.32.39.6.78,1.35.44,2,0,0,0,0-.05,0-1.2-.71-1.62-2-2.48-2.87a4.41,4.41,0,0,1-1-1.35,3.36,3.36,0,0,1-.14-1.64,10,10,0,0,1,2.62-5.12l.09-.14c.11-.15.23-.29.35-.43-6.9,4.43-4.48,9.56-4.48,9.56s1.83,3.83,2.9,3.73c4.87-1.07,4.38-5.56,2.9-7.4s-2.26-3.6-1-6.06"/></g></g><g class="cls-6"><g class="cls-82"><path class="cls-37" d="M226.24,22.53s-.14,0-.11.09a5,5,0,0,1,.88,1.21,3.88,3.88,0,0,1,0,1.52c0,.12.17,0,.18,0a2.75,2.75,0,0,0,.12-1.42c-.09-.58-.61-.9-1.06-1.35"/></g></g><path class="cls-62" d="M185.9,27.43a6.6,6.6,0,0,1,7,.26c2.8,2.23,2.18,5.18,7.38,5.3s.83-2.85-1.26-4.78-8.88-4.84-13.08-.78"/><path class="cls-63" d="M200.63,33.19h-.37c-3.62-.08-4.59-1.53-5.62-3.07a9.27,9.27,0,0,0-2-2.3,5.73,5.73,0,0,0-3.39-1.08,6.87,6.87,0,0,0-3.2.85.35.35,0,0,1-.36,0,.17.17,0,0,1,0-.27,7.67,7.67,0,0,1,5.49-2.12,13.05,13.05,0,0,1,8,2.91c.32.29.68.6,1.06.93,1.52,1.31,3.1,2.66,2.64,3.51-.24.44-1,.66-2.25.67m-11.39-6.85A6.42,6.42,0,0,1,193,27.55,9.71,9.71,0,0,1,195.12,30c1,1.53,1.83,2.74,5.11,2.82h.35c.71,0,1.6-.08,1.8-.44.34-.62-1.25-2-2.53-3.09-.38-.33-.75-.64-1.07-.94a12.3,12.3,0,0,0-7.56-2.75,7.39,7.39,0,0,0-3.87,1,7.29,7.29,0,0,1,1.9-.27"/><path class="cls-62" d="M193.17,26.16a16.43,16.43,0,0,0-2-.78,7.59,7.59,0,0,0-4.51,1.38,9,9,0,0,1,2.4-.92,6.14,6.14,0,0,1,4.07.32"/><path class="cls-63" d="M186.72,27a.33.33,0,0,1-.22-.07.16.16,0,0,1,0-.27,7.87,7.87,0,0,1,4.68-1.44l.13,0a16.92,16.92,0,0,1,1.92.76l.08,0c.13.06.18.18.1.28a.32.32,0,0,1-.37.05l-.07,0a5.85,5.85,0,0,0-3.77-.26,8.73,8.73,0,0,0-2.32.9.31.31,0,0,1-.15,0"/><g class="cls-6"><g class="cls-83"><path class="cls-37" d="M199,28.21a12.74,12.74,0,0,0-7.56-2.82,23.54,23.54,0,0,1,4.07,1.89,17.51,17.51,0,0,1,3,2c.59.51,1.42,1.33,1.26,2-.12.53-.87.49-1.45.31a3.28,3.28,0,0,1-1.81-1.82c-.85-1.52-2.24-3.5-4.6-4a7.15,7.15,0,0,0-4,.5A6.92,6.92,0,0,0,186,27.39a6.56,6.56,0,0,1,6.91.29c2.8,2.23,2.18,5.18,7.38,5.3s.83-2.85-1.26-4.78"/></g></g><path class="cls-62" d="M196.38,24.57s3.22,1.08,3.34,3.38.23,5.69,6.11,5.71,5.68-1.85,3.55-4.14-5.22-5.23-13-5"/><path class="cls-63" d="M206.07,33.86h-.22a7.71,7.71,0,0,1-4.49-1.12c-1.72-1.23-1.83-3.24-1.91-4.71v-.08c-.11-2.13-3.14-3.18-3.17-3.19a.21.21,0,0,1-.17-.22.23.23,0,0,1,.23-.16c7.69-.27,10.87,2.48,13.26,5.05,1.3,1.4,1.7,2.44,1.21,3.19s-2.09,1.23-4.75,1.24m-8.75-9.11c1,.51,2.58,1.55,2.67,3.21V28c.08,1.48.17,3.32,1.73,4.43a7,7,0,0,0,4.09,1H206c2.41,0,3.86-.36,4.3-1s0-1.52-1.16-2.79c-2.21-2.37-5.12-4.9-11.85-4.88"/><g class="cls-6"><g class="cls-84"><path class="cls-37" d="M209.38,29.53c-2-2.15-4.85-4.88-11.65-5,.38.15.76.32,1.12.51a27.5,27.5,0,0,1,3.8,1.2,13.87,13.87,0,0,1,3.12,1.67,4,4,0,0,1,1.79,2.32c.11.9-.5,1.73-1.89,1.49a3.45,3.45,0,0,1-1.89-1,4.87,4.87,0,0,1,.18.52c.1.33.31.89-.16,1.1-1.17.49-1.72-1-1.91-1.58a9.2,9.2,0,0,1-.36-1.51,5.47,5.47,0,0,0-.62-2.39,5.47,5.47,0,0,0-2.1-1.76c-.72-.18-1.44-.33-2.17-.48.79.33,3,1.39,3.05,3.27.12,2.3.23,5.69,6.11,5.71s5.68-1.85,3.55-4.14"/></g></g><path class="cls-62" d="M222.19,16.68s-6.35,2.76-5.53,7.92c.87,4.4,4,6.15,6.6,4.22s3.78-3.23,1.58-5-4.15-4.33-2.65-7.11"/><path class="cls-63" d="M221.1,29.81h0c-2.23,0-4.08-2-4.7-5.19-.83-5.23,5.58-8.08,5.65-8.11a.35.35,0,0,1,.32,0,.17.17,0,0,1,.08.23c-1.18,2.19-.31,4.51,2.59,6.9,2.47,2,.83,3.54-1.58,5.3a4,4,0,0,1-2.36.83m.56-12.6c-1.59.88-5.36,3.43-4.73,7.39.58,2.93,2.2,4.82,4.12,4.81h0a3.42,3.42,0,0,0,2-.72c2.7-2,3.57-3.13,1.59-4.76-2.8-2.3-3.8-4.56-3-6.72"/><g class="cls-6"><g class="cls-85"><path class="cls-37" d="M221.79,17.7c-.92,1.63-1.37,3.61.15,5.18a15.47,15.47,0,0,1,2,2,1.72,1.72,0,0,1,.29,1.58,1,1,0,0,1-1.32.45,5.57,5.57,0,0,1-1.74-1.45,12.58,12.58,0,0,1,1,1.58c.16.31.45.78.29,1.11s-.68,0-.89-.1a5.15,5.15,0,0,1-1.74-1.74,12.09,12.09,0,0,1-1.25-2.3,4,4,0,0,1,.87-4.21c.76-.91,1.7-1.73,2.54-2.6a4.27,4.27,0,0,1,.25-.53s-6.35,2.76-5.53,7.92c.87,4.4,4,6.15,6.6,4.22s3.78-3.23,1.58-5c-1.93-1.58-3.67-3.72-3.05-6.1"/></g></g><path class="cls-62" d="M216.51,20.83s-7.26,2.15-7.84,8c-.16,2.73,1.22,4.11,5.51,4.32,3.53-.16,8.23-2.15,5.6-5s-4.61-4.91-3.26-7.4"/><path class="cls-63" d="M214.2,33.39h0c-2.18-.11-3.68-.53-4.6-1.28a3.61,3.61,0,0,1-1.18-3.27c.59-5.94,7.92-8.17,8-8.2a.36.36,0,0,1,.3,0,.17.17,0,0,1,.07.22c-1.29,2.39.6,4.4,3.21,7.19a2.14,2.14,0,0,1,.57,2.7c-.92,1.53-3.94,2.47-6.32,2.58ZM216,21.22c-1.72.66-6.63,2.95-7.1,7.67a3.28,3.28,0,0,0,1,3A7.32,7.32,0,0,0,214.16,33c2.23-.11,5-1,5.88-2.36a1.8,1.8,0,0,0-.48-2.29c-2.47-2.63-4.43-4.73-3.52-7.11"/><g class="cls-6"><g class="cls-86"><path class="cls-37" d="M216.51,20.83,216,21a2.41,2.41,0,0,0-.66,1.54A6,6,0,0,0,216.52,26c.64.95,1.5,1.8,2.16,2.74.35.5,1.35,2.44-.2,2.3-.81-.07-1.05-.71-1.25-1.21a9.4,9.4,0,0,0-1-1.62c.48,1.55.57,3.74-1.66,3.45a2.48,2.48,0,0,1-.63-.17l-.13-.06a2.44,2.44,0,0,1-1.23-2.12,7.21,7.21,0,0,1,0-.89c0-.07,0-.15,0-.22a.19.19,0,0,1,0-.06,3.18,3.18,0,0,0-.41.54,2.46,2.46,0,0,0,.26,2.83s0,0-.07,0c-4.3-2.17-2.51-5.65-.38-8.26a8.23,8.23,0,0,0-3.33,5.63c-.16,2.73,1.22,4.11,5.51,4.32,3.53-.16,8.23-2.15,5.6-5s-4.61-4.91-3.26-7.4"/></g></g><g class="cls-6"><g class="cls-87"><path class="cls-37" d="M214.53,32.81c-1.28-.69-2.51-1.48-2.63-2.7,0-.1-.15,0-.16.06-.11,1.19,1.05,2.43,2.58,2.89.15,0,.35-.18.21-.25"/></g></g><g class="cls-6"><g class="cls-88"><path class="cls-37" d="M216.8,29.93c-.06-.08-.21.07-.18.13a4.09,4.09,0,0,1,.21,2.09c0,.15.2,0,.23-.06a2.12,2.12,0,0,0-.25-2.15"/></g></g><g class="cls-6"><g class="cls-89"><path class="cls-37" d="M212.89,32.71a4.27,4.27,0,0,1-1.54-1s-.11,0-.08.07c.39.41.78,1,1.53,1,.06,0,.17-.1.09-.13"/></g></g><g class="cls-6"><g class="cls-90"><path class="cls-37" d="M221.12,25.41s-.12.05-.08.08a6.34,6.34,0,0,1,1.14,1.26,10,10,0,0,1,.72,1.94c0,.12.24-.05.22-.13a4.88,4.88,0,0,0-2-3.15"/></g></g><g class="cls-6"><g class="cls-91"><path class="cls-37" d="M221.81,27.68c0-.05-.15.05-.12.1a2,2,0,0,1,.38,1.23c0,.1.16,0,.17,0a1.77,1.77,0,0,0-.43-1.28"/></g></g><g class="cls-6"><g class="cls-92"><path class="cls-37" d="M207.21,33.43c-1.26-.49-2.89-1.35-3-2.49,0-.1-.15,0-.15.06,0,1.07,1.55,2.43,3,2.68.12,0,.31-.2.18-.25"/></g></g><g class="cls-6"><g class="cls-93"><path class="cls-37" d="M205.32,33.27a2.8,2.8,0,0,1-1.84-1.17s-.07,0-.06,0a2.32,2.32,0,0,0,1.8,1.31c.1,0,.22-.16.1-.18"/></g></g><g class="cls-58"><g class="cls-94"><path class="cls-62" d="M214.53,22.08a7.61,7.61,0,0,0-3.45,3c-.71,1.12-1.18,3.32.05,4.42.17.16.45-.17.36-.3-1.76-2.63.46-5.44,3-7,0,0,.06-.12,0-.08"/></g></g><g class="cls-58"><g class="cls-95"><path class="cls-62" d="M220.7,18.43c-2.54,2.38-3.22,5.25-.23,8,.15.14.38-.14.3-.26A13.36,13.36,0,0,1,219,22.81c-.45-1.63.72-3.05,1.83-4.3.07-.07,0-.17-.11-.08"/></g></g><g class="cls-58"><g class="cls-96"><path class="cls-62" d="M201.56,27.65a4.69,4.69,0,0,0-2.16-2.34c-.06,0-.13.06-.08.1a6.84,6.84,0,0,1,2,2.88,9,9,0,0,1,.68,3.22c0,.23.34,0,.36-.13a6.53,6.53,0,0,0-.81-3.72"/></g></g><g class="cls-58"><g class="cls-97"><path class="cls-62" d="M226.07,14.38c-2.11,2.18-3.81,5.33-1.42,8,.14.15.39-.15.33-.27-1.7-3-.59-5.09,1.22-7.67.06-.09-.07-.1-.13,0"/></g></g><g class="cls-58"><g class="cls-98"><path class="cls-62" d="M229.67,12.38c-1.6,1.71-3.31,5.23-.23,6.92.14.07.35-.17.25-.25-2.29-2.14-1.65-4.56.07-6.62.06-.07,0-.11-.09,0"/></g></g><g class="cls-58"><g class="cls-99"><path class="cls-62" d="M193.23,26c-.09-.05-.24.12-.15.17a10.35,10.35,0,0,1,4,4.8c.08.16.31-.07.29-.17-.39-1.9-2.07-3.65-4.18-4.8"/></g></g><g class="cls-58"><g class="cls-100"><path class="cls-62" d="M209.58,22.37c-2.48-1.66-2.53-3.92-2.9-6.14,0-.09-.19,0-.18.09.23,2.17.11,4.85,2.81,6.37.17.1.43-.21.27-.32"/></g></g><g class="cls-58"><g class="cls-101"><path class="cls-62" d="M205.5,25.37a5.65,5.65,0,0,1-1.62-6.2c0-.15-.18-.05-.21,0-.77,2.2-.73,4.52,1.55,6.41.14.11.39-.14.28-.24"/></g></g><g class="cls-58"><g class="cls-102"><path class="cls-62" d="M214.22,19.88a2.21,2.21,0,0,1-1-3.21c.07-.1,0-.15-.12-.06a2.25,2.25,0,0,0,.91,3.54c.16.05.38-.2.23-.27"/></g></g><g class="cls-58"><g class="cls-103"><path class="cls-62" d="M196.38,23.63a2.33,2.33,0,0,1-1.67-1.75c-.28-1.1.35-1.91.79-2.87,0-.08-.07-.07-.1,0-.61,1-1.24,1.69-1.06,2.86a2.15,2.15,0,0,0,1.85,2c.13,0,.34-.21.19-.27"/></g></g><g class="cls-58"><g class="cls-104"><path class="cls-62" d="M199.38,14.85c-1.66,1.85-2.67,4.5-.38,6.54.14.12.39-.14.29-.24-1.88-2.12-1.35-4.27.2-6.24.07-.09,0-.15-.12-.06"/></g></g><g class="cls-58"><g class="cls-105"><path class="cls-62" d="M202.1,12c0-.11-.18,0-.2.05a2.76,2.76,0,0,0,.54,2.52c.08.09.24-.09.2-.16A3.53,3.53,0,0,1,202.1,12"/></g></g><path class="cls-106" d="M404.67,106.63l-1.06-.18c-.35,0-.78-.2-1.29-.32l-.83-.23a4.28,4.28,0,0,0-1-.11,10.4,10.4,0,0,0-2.26.06l-2.71.22a27.29,27.29,0,0,1-3.15.14,14.24,14.24,0,0,0-3.59.13l-.48.18c-.16.09-.32.21-.48.32l-.24.17-.23.11a1.68,1.68,0,0,1-.49.18,12.5,12.5,0,0,1-2,.27,30.74,30.74,0,0,1-4.35,0l-2.32-.17c-.79-.06-1.59-.14-2.41-.27l-1.24-.19c-.41-.09-.82-.26-1.24-.38a13.67,13.67,0,0,1-2.56-1.25,13.32,13.32,0,0,0-2.69-1.15,9.05,9.05,0,0,0-2.78-.09l-5.75.29-3,.17a25.75,25.75,0,0,1-3.06.07l-6.34-.09-3.28.05c-1.1,0-2.23.23-3.36.33s-2.25.73-3.39,1.06a20.85,20.85,0,0,1-3.43.82,13.14,13.14,0,0,1-3.48,0,10.25,10.25,0,0,1-1.76-.4c-.6-.15-1.19-.39-1.79-.58-2.41-.76-4.87-2.2-7.36-2.25-5-.5-10,3.2-15.19,2.37-2.58,0-5.2-.13-7.87-.07s-5.33.5-8,.38c-.67,0-1.35-.14-2-.21a18.79,18.79,0,0,1-2-.55l-2.05-.44a19,19,0,0,0-2.07,0,60.63,60.63,0,0,0-8.28,1.4,39.48,39.48,0,0,1-8.35,1.23l-4.22-.07a10.06,10.06,0,0,0-2.12.25c-.71.11-1.42.21-2.12.38a11.44,11.44,0,0,1-4.24.37c-1.42-.25-2.84-.71-4.26-1.1a14.71,14.71,0,0,0-4.3-.76,6.46,6.46,0,0,0-1.09.31,5.6,5.6,0,0,1-1.07.36l-1.06.22-1.07.13a29.79,29.79,0,0,1-4.3.11l-2.15-.19a18.68,18.68,0,0,1-2.15-.46l-1.07-.36-1.09-.32a5.28,5.28,0,0,0-2.19.07c-1.45.32-2.87,1.27-4.29,1.68s-2.84-.23-4.27-.63a40.3,40.3,0,0,0-4.32-1.2,17.8,17.8,0,0,0-2.17-.33,21.24,21.24,0,0,0-2.17,0c-.72.13-1.46.33-2.16.48l-1.07.25a4.35,4.35,0,0,1-1.07.18,41,41,0,0,1-8.55-.56,25.73,25.73,0,0,0-4.29-.24l-1.08.1-1.05.06a13.19,13.19,0,0,1-2.12,0c-5.63-.36-11.27-1.32-16.83-1.89a17.1,17.1,0,0,0-4.22,0c-1.38.59-2.74,1.36-4.08,1.85a17.26,17.26,0,0,1-2,.64,12,12,0,0,1-2,.27h-1a5,5,0,0,1-1-.15l-2-.39c-.68-.11-1.34-.3-2-.34l-2,0a19.92,19.92,0,0,1-4-.08,59.66,59.66,0,0,0-7.88-.73,35,35,0,0,0-3.89,0l-1.92.1-1,.07-1,.18c-.64.13-1.3.21-1.91.39l-.94.35-.47.17-.46.1-.92.19a2.52,2.52,0,0,1-.92.1l-1.83-.07L118.41,106a7.88,7.88,0,0,0-1.84-.32,10.9,10.9,0,0,0-1.83-.11,48.57,48.57,0,0,0-7.11.46l-3.46.41-.85.08-.21,0h-.63a10.44,10.44,0,0,1-1.66-.24c-2.23-.52-4.43-1.35-6.6-1.8a10,10,0,0,0-3.24-.23,3,3,0,0,0-.81.19l-.41.15-.41.27-1.52,1a20.55,20.55,0,0,1-6,1.54,29.45,29.45,0,0,1-5.73.06l-1.38-.15L73.38,107l-2.68-.67a6.2,6.2,0,0,0-1.31-.27L68.1,106a8.41,8.41,0,0,0-2.52.27,17.19,17.19,0,0,0-2.41.67l-.59.19-.57.08a4.1,4.1,0,0,1-1.14.09,24.27,24.27,0,0,1-4.34-.79c-1.39-.34-2.72-.67-4-.9-.63-.09-1.24-.24-1.84-.28L49,105.26a24,24,0,0,0-3.15.49,23.07,23.07,0,0,1-5,.45,24.11,24.11,0,0,1-3.08-.21l-.79-.16-.25-.08,0,.33.28.14.79.21a24,24,0,0,0,3.08.42,23.09,23.09,0,0,0,5-.11,24.37,24.37,0,0,1,3.14-.28l1.73.21c.59.08,1.2.27,1.83.41,1.26.3,2.58.75,4,1.15a24.5,24.5,0,0,0,4.39,1,4.41,4.41,0,0,0,1.15,0l.6-.06.58-.16a16.45,16.45,0,0,1,2.4-.56,8,8,0,0,1,2.48-.14l1.27.1a6.47,6.47,0,0,1,1.3.33l2.66.79,1.38.39,1.39.23a24.34,24.34,0,0,0,2.85.24c1,0,1.94,0,2.92-.1a24,24,0,0,0,3-.45,13.94,13.94,0,0,0,1.53-.38l1.57-.58,1.54-1,.36-.23.38-.13a2.69,2.69,0,0,1,.76-.15,9.68,9.68,0,0,1,3.16.32c2.14.5,4.34,1.39,6.6,2a10.22,10.22,0,0,0,1.72.3h.65l.22,0,.86-.06,3.46-.32a63,63,0,0,1,7.08-.34,11.64,11.64,0,0,1,1.79.11,7.66,7.66,0,0,1,1.8.32l3.7,1.21,1.89.09a2.7,2.7,0,0,0,1-.09l1-.19.48-.1.47-.16.94-.34c.64-.19,1.24-.24,1.87-.37l.94-.17,1-.06,1.92-.1a36,36,0,0,1,3.86,0,60.31,60.31,0,0,1,7.87.78,16.44,16.44,0,0,0,4,.05l2-.06c.66,0,1.34.22,2,.31l2,.36a5.43,5.43,0,0,0,1,.14h1a12.82,12.82,0,0,0,2.07-.31,19.13,19.13,0,0,0,2.06-.69c1.38-.52,2.73-1.31,4.09-1.92a18,18,0,0,1,4.08,0c5.55.46,11.16,1.4,16.86,1.58a12.75,12.75,0,0,0,2.13-.09l1.07-.1,1.05-.13a25.87,25.87,0,0,1,4.25.09,40.29,40.29,0,0,0,8.61.25,4.41,4.41,0,0,0,1.08-.22l1.07-.29c.73-.19,1.42-.4,2.13-.55a20.63,20.63,0,0,1,2.14-.07,17.25,17.25,0,0,1,2.14.25,39.58,39.58,0,0,1,4.3,1c1.44.35,2.89,1,4.36.48s2.86-1.47,4.28-1.84a3.27,3.27,0,0,1,1.06-.18l.53,0h.26l.27.07,1.07.27,1.09.32a17.71,17.71,0,0,0,2.17.38l2.16.11a31.16,31.16,0,0,0,4.31-.26L239,109l1.08-.25a5.47,5.47,0,0,0,1.07-.38,6.53,6.53,0,0,1,1.05-.31,14.18,14.18,0,0,1,4.27.69c1.42.37,2.85.82,4.27,1a11.61,11.61,0,0,0,4.27-.42c.71-.19,1.41-.29,2.11-.41a8.49,8.49,0,0,1,2.11-.22l4.22.14a38.9,38.9,0,0,0,8.38-1.07,47.47,47.47,0,0,1,8.25-1.17,18.27,18.27,0,0,1,2,.09l2,.53a18.66,18.66,0,0,0,2,.65,19.54,19.54,0,0,0,2,.31c2.71.24,5.39-.12,8,0s5.25,1.28,7.87,1.43l1,.14c.33,0,.65,0,1,0l2-.06a6.5,6.5,0,0,0,1.92-.33l1.9-.48,1-.28.94-.29a11.46,11.46,0,0,1,1.87-.41,12.12,12.12,0,0,1,1.86-.19,11.69,11.69,0,0,1,1.85,0,26.06,26.06,0,0,1,7.27,1.33c.6.2,1.2.44,1.79.6a10,10,0,0,0,1.8.44,11.89,11.89,0,0,0,3.55-.07,21.36,21.36,0,0,0,3.47-.89,34.74,34.74,0,0,1,3.38-1.11c1.11-.13,2.21-.36,3.31-.38l3.27-.11,6.34,0a26.83,26.83,0,0,0,3.06-.13l3-.22,5.74-.45a8.75,8.75,0,0,1,2.73,0,12.33,12.33,0,0,1,2.64,1,13.08,13.08,0,0,0,2.58,1.14c.43.12.86.27,1.28.35l1.24.13a23.23,23.23,0,0,0,2.42.17l2.32.08a32.11,32.11,0,0,0,4.38-.18,10,10,0,0,0,2.06-.41,1.78,1.78,0,0,0,.49-.22,2,2,0,0,0,.26-.14l.23-.17c.16-.11.31-.24.46-.33l.46-.21a14.68,14.68,0,0,1,3.55-.36,28.24,28.24,0,0,0,3.15-.34l2.71-.41a12.66,12.66,0,0,1,2.25-.22,4.28,4.28,0,0,1,.95,0l.83.15a11.87,11.87,0,0,0,1.3.21l1.06.09Z"/></g></g></g></svg>